<svg width="56" height="69" viewBox="0 0 56 69" fill="none" xmlns="http://www.w3.org/2000/svg">
<path d="M46.6329 38.766C44.7624 29.3522 53.6977 23.8311 53.6977 23.8311C53.6977 23.8311 50.2164 18.7945 44.3656 17.4988C38.5177 16.2002 35.5909 17.8226 32.6697 19.0395C29.7458 20.2593 28.2868 20.2593 28.2868 20.2593C24.0672 20.2593 20.9827 15.7916 12.9433 17.8256C7.40478 19.2233 1.5743 25.617 0.520864 33.2479C-0.53257 40.8817 1.74069 50.6223 6.12367 58.1716C10.5066 65.7266 14.9715 68.5659 18.1404 68.6476C21.3095 68.7263 24.4728 66.3773 28.2868 65.8053C32.1037 65.2392 34.4527 67.1886 38.1967 68.242C41.9259 69.2926 43.2333 68.3179 47.5288 64.6644C51.8358 61.0108 55.7345 50.532 55.7345 50.532C55.7345 50.532 48.5034 48.1857 46.6329 38.766Z" fill="black"/>
<path d="M38.3514 11.4085C42.4951 7.18606 41.0916 0.649414 41.0916 0.649414C41.0916 0.649414 35.2729 1.67079 31.3742 5.72692C27.4785 9.78603 28.1234 16.1971 28.1234 16.1971C28.1234 16.1971 34.2077 15.6281 38.3514 11.4085Z" fill="black"/>
</svg>
