<svg width="320" height="835" viewBox="0 0 320 835" fill="none" xmlns="http://www.w3.org/2000/svg">
<g opacity="0.3">
<path d="M-23.2862 645.259C-26.7839 644.165 -29.984 642.625 -32.8479 640.653C-38.8536 636.516 -43.4357 630.445 -46.4667 622.607C-49.7255 614.185 -51.2217 603.629 -50.9159 591.233C-50.3001 566.318 -43.3604 538.42 -36.6491 511.439C-35.3318 506.14 -33.9694 500.662 -32.6869 495.334C-23.9527 459.02 -18.6743 426.468 -16.5485 395.821C-12.3083 334.684 -19.4276 279.152 -37.1383 235.227C-57.6213 184.43 -89.3476 152.398 -126.474 145.031C-148.296 140.703 -184.862 152.982 -212.529 184.824C-228.948 203.722 -239.64 227.048 -243.446 252.276L-243.612 252.336C-241.615 239.105 -237.77 226.418 -232.183 214.626C-227.057 203.808 -220.467 193.728 -212.593 184.666C-200.069 170.252 -184.713 158.808 -168.183 151.569C-152.909 144.881 -138.064 142.474 -126.381 144.792C-106.952 148.649 -89.0455 159.167 -73.1607 176.058C-58.7618 191.37 -46.5886 211.216 -36.9803 235.045C-19.2587 278.994 -12.1343 334.558 -16.3777 395.73C-18.5062 426.398 -23.7876 458.968 -32.5258 495.302C-33.8069 500.631 -35.1703 506.111 -36.489 511.409C-43.1963 538.37 -50.1307 566.249 -50.7445 591.128C-51.3394 615.191 -45.2754 631.776 -32.7222 640.421C-15.3385 652.395 13.9604 647.877 45.6517 628.333C91.3209 600.17 135.259 552.131 177.75 505.677C185.199 497.535 192.899 489.115 200.424 481.012C219.961 459.97 245.819 432.873 272.584 409.899C299.941 386.416 324.326 370.502 347.133 361.246C361.093 355.58 374.421 352.989 386.746 353.546C398.131 354.059 409.031 357.277 419.147 363.109C436.498 373.113 452.158 390.946 467.026 417.626C496.299 470.163 522.01 530.862 543.442 598.038C563.813 661.886 580.509 732.149 593.067 806.868L592.901 807.013C566.87 652.124 524.469 521.181 466.876 417.819C434.337 359.422 396.28 341.518 347.104 361.474C297.076 381.775 247.069 431.002 200.481 481.176C192.959 489.277 185.258 497.697 177.81 505.839C135.305 552.311 91.3529 600.363 45.6523 628.546C30.884 637.654 16.0635 643.726 2.79482 646.104C-4.21461 647.361 -10.7381 647.576 -16.5968 646.744C-18.9348 646.419 -21.1658 645.921 -23.2862 645.259Z" fill="#FFE492"/>
<path d="M-14.2264 633.201C-23.1461 630.413 -30.1444 624.889 -35.034 616.776C-40.4864 607.729 -43.2816 595.478 -43.3444 580.364C-43.3493 579.026 -43.3331 577.648 -43.2953 576.267C-42.6261 551.478 -36.032 523.862 -29.6531 497.154C-28.3651 491.756 -27.0314 486.174 -25.7787 480.744C-18.321 448.411 -13.5795 419.341 -11.2869 391.877C-11.0052 388.496 -10.757 385.097 -10.5525 381.774C-6.80125 321.021 -14.3982 266.015 -32.5215 222.7C-53.5607 172.487 -85.7471 141.225 -123.153 134.676C-145.029 130.875 -181.615 143.536 -209.217 175.088C-225.745 193.981 -236.706 217.276 -240.919 242.454L-241.084 242.509C-238.876 229.312 -234.858 216.652 -229.143 204.884C-223.894 194.076 -217.212 183.998 -209.281 174.929C-196.712 160.561 -181.376 149.092 -164.933 141.762C-149.735 134.987 -134.866 132.386 -123.064 134.438C-103.478 137.868 -85.3717 147.978 -69.2487 164.486C-54.6451 179.44 -42.2362 198.965 -32.3672 222.52C-14.233 265.859 -6.63329 320.899 -10.3855 381.685C-10.5909 385.01 -10.8388 388.413 -11.1215 391.796C-13.4158 419.278 -18.1593 448.363 -25.6213 480.713C-26.8726 486.143 -28.2064 491.726 -29.4954 497.126C-35.8685 523.817 -42.4587 551.413 -43.1269 576.168C-43.1641 577.544 -43.1803 578.922 -43.1757 580.257C-43.0496 611.497 -31.4447 627.818 -14.1845 633.214C-14.0897 633.244 -13.9964 633.273 -13.9016 633.303C-14.0089 633.266 -14.1182 633.235 -14.2264 633.201ZM-10.4741 634.188C6.18568 637.777 27.3326 632.274 48.364 620.828C93.7909 595.997 138.649 549.735 182.032 504.997C183.819 503.153 185.604 501.313 187.389 499.474C191.308 495.435 195.952 490.656 200.661 485.846C221.785 464.28 246.852 439.339 272.596 417.885C299.989 395.057 324.3 379.362 346.917 369.9C360.81 364.096 374.139 361.115 386.532 361.039C398.014 360.968 409.075 363.391 419.404 368.239C437.248 376.617 453.555 392.326 469.256 416.268C484.574 439.585 496.329 460.7 506.248 482.72C520.289 513.937 531.636 548.395 540.884 577.984C562.317 646.93 579.708 723.048 592.573 804.225L592.407 804.367C579.543 723.202 562.155 647.09 540.725 578.152C531.478 548.566 520.134 514.115 506.094 482.906C496.177 460.892 484.426 439.783 469.109 416.472C434.907 364.316 396.07 349.589 346.889 370.13C295.829 391.486 244.662 441.148 200.71 486.021C195.999 490.83 191.359 495.608 187.438 499.648C185.654 501.486 183.868 503.328 182.081 505.172C138.685 549.924 93.81 596.202 48.3504 621.052C37.0939 627.178 26.1015 631.403 15.678 633.607C5.97732 635.654 -2.80077 635.848 -10.4741 634.188Z" fill="#FFE492"/>
<path d="M-4.9378 621.556C-6.01082 621.221 -7.05997 620.847 -8.08286 620.435C-16.7014 616.967 -23.427 610.848 -28.07 602.243C-33.148 592.832 -35.7256 580.439 -35.729 565.405C-35.7276 564.066 -35.7076 562.687 -35.6671 561.307C-34.9455 536.656 -28.6948 509.329 -22.6498 482.905C-21.3898 477.397 -20.0872 471.701 -18.8665 466.16C-11.7333 433.843 -7.26436 404.932 -5.20638 377.775C-4.953 374.417 -4.73214 371.038 -4.55397 367.734C-1.29264 307.368 -9.36725 252.887 -27.9031 210.182C-49.4973 160.554 -82.1427 130.06 -119.828 124.327C-141.067 121.146 -177.052 132.62 -205.871 165.325C-222.521 184.22 -233.765 207.498 -238.388 232.641L-238.551 232.689C-236.13 219.516 -231.935 206.879 -226.088 195.129C-220.71 184.321 -213.93 174.242 -205.934 165.167C-193.322 150.855 -178.013 139.372 -161.661 131.955C-146.543 125.099 -131.655 122.307 -119.741 124.091C-99.9971 127.097 -81.6899 136.797 -65.3301 152.922C-50.5214 167.52 -37.8773 186.723 -27.7488 210.002C-9.20312 252.734 -1.12468 307.245 -4.38692 367.645C-4.5661 370.952 -4.78562 374.331 -5.04102 377.694C-7.10098 404.866 -11.5729 433.794 -18.7105 466.129C-19.9321 471.672 -21.2348 477.369 -22.4947 482.876C-28.5351 509.285 -34.7817 536.593 -35.5031 561.214C-35.5436 562.595 -35.5653 563.97 -35.5647 565.305C-35.5504 626.392 7.96557 633.437 51.0832 613.323C96.4857 591.924 142.616 547.19 187.227 503.929L187.685 503.485C192.007 499.291 196.476 494.956 200.907 490.682C247.654 445.59 297.42 399.788 346.712 378.553C360.542 372.61 373.873 369.238 386.33 368.531C397.916 367.873 409.135 369.501 419.674 373.369C438.048 380.113 454.999 393.7 471.497 414.908C488.858 437.144 500.861 456.346 510.416 477.173C524.01 506.892 534.333 542.303 543.44 573.546C563.588 643.407 579.957 720.128 592.093 801.573L591.927 801.713C579.792 720.276 563.424 643.563 543.279 573.708C534.173 542.471 523.852 507.066 510.262 477.356C500.711 456.536 488.712 437.34 471.357 415.112C435.596 369.141 395.982 357.595 346.687 378.776C297.426 399.998 247.681 445.779 200.952 490.855C196.521 495.13 192.051 499.466 187.73 503.658L187.272 504.102C165.041 525.66 142.053 547.952 119.314 567.174C93.7592 588.775 71.4342 603.942 51.0625 613.542C29.8046 623.458 10.0885 626.253 -4.9378 621.556Z" fill="#FFE492"/>
<path d="M591.437 799.054C580.03 717.345 564.684 640.031 545.825 569.263C545.018 566.283 544.213 563.291 543.405 560.29C535.187 529.75 526.689 498.171 514.422 471.805C502.497 446.279 487.093 428.135 473.596 413.753C436.405 373.901 396.012 365.535 346.476 387.42C295.582 409.986 243.241 457.506 201.184 495.69C198.66 497.982 196.136 500.279 193.609 502.578C191.744 504.276 189.877 505.973 188.011 507.668C164.053 529.436 142.433 548.835 120.452 565.832C95.3403 585.249 73.5275 598.399 53.7631 606.035C35.2403 613.194 18.098 614.685 4.56589 610.458C2.10053 609.687 -0.242713 608.729 -2.45539 607.577C-10.534 603.374 -16.8159 596.697 -21.1256 587.731C-25.8289 577.948 -28.1849 565.404 -28.131 550.444C-28.1245 549.103 -28.0995 547.724 -28.0552 546.342C-27.2801 521.838 -21.3736 494.815 -15.6613 468.684C-14.4307 463.055 -13.1582 457.233 -11.9674 451.568C-5.15958 419.258 -0.963588 390.504 0.863477 363.663C1.09055 360.323 1.28176 356.967 1.43397 353.684C4.20402 293.704 -4.34694 239.749 -23.293 197.653C-45.4421 148.608 -78.5472 118.888 -116.51 113.964C-142.498 110.681 -177.858 127.768 -202.498 155.513C-219.285 174.416 -230.821 197.688 -235.862 222.812L-236.025 222.854C-233.385 209.7 -229.011 197.076 -223.023 185.335C-217.511 174.524 -210.626 164.438 -202.56 155.353C-189.909 141.107 -174.63 129.614 -158.376 122.121C-143.343 115.191 -128.444 112.208 -116.424 113.728C-96.5214 116.308 -78.0158 125.599 -61.4192 141.341C-46.4067 155.582 -33.5256 174.466 -23.1367 197.468C-4.17843 239.589 4.37634 293.574 1.60437 353.591C1.4525 356.877 1.26031 360.235 1.03323 363.575C-0.794462 390.432 -4.99381 419.201 -11.8036 451.526C-12.9955 457.193 -14.267 463.013 -15.4985 468.644C-21.2075 494.761 -27.1097 521.766 -27.8845 546.241C-27.9278 547.62 -27.9531 548.997 -27.96 550.335C-28.1929 614.684 15.9371 620.432 53.7966 605.804C98.967 588.349 146.254 545.388 187.976 507.482C189.843 505.784 191.708 504.087 193.574 502.392C196.1 500.093 198.625 497.796 201.149 495.504C225.155 473.708 248.688 452.592 272.64 433.842C300.184 412.278 324.345 397.02 346.503 387.194C360.276 381.109 373.605 377.346 386.121 376.013C397.819 374.766 409.196 375.6 419.938 378.49C438.882 383.588 456.48 395.055 473.733 413.54C487.233 427.929 502.645 446.081 514.575 471.621C526.849 497.998 535.348 529.585 543.568 560.131C544.375 563.132 545.181 566.124 545.988 569.104C564.849 639.879 580.197 717.2 591.605 798.918L591.437 799.054Z" fill="#FFE492"/>
<path d="M590.953 796.398C580.069 712.859 565.745 634.943 548.376 564.818C547.337 560.623 546.285 556.304 545.268 552.129C537.978 522.225 530.442 491.303 518.587 466.253C506.721 441.307 490.321 425.026 475.841 412.392C437.378 378.578 396.206 373.389 346.272 396.064C298.593 417.81 251.24 458.119 205.446 497.099L200.418 501.378C196.446 504.759 192.34 508.253 188.301 511.677C142.597 550.38 98.1255 586.143 56.4732 598.525C46.3657 601.53 36.7668 602.801 27.938 602.308C18.4582 601.777 10.1316 599.209 3.18926 594.673C-4.35075 589.745 -10.1901 582.521 -14.166 573.199C-18.4931 563.056 -20.631 550.364 -20.5194 535.48C-20.5071 534.134 -20.4771 532.753 -20.4297 531.375C-19.6045 507.033 -14.0405 480.328 -8.65906 454.502C-7.45834 448.74 -6.2173 442.78 -5.05657 436.978C1.42137 404.671 5.34709 376.075 6.94393 349.555C7.14304 346.241 7.30794 342.903 7.43249 339.638C9.71262 280.045 0.685316 226.617 -18.6736 185.127C-41.381 136.671 -74.9452 107.719 -113.188 103.609C-139.182 100.919 -174.503 118.215 -199.084 145.671C-216.021 164.588 -227.864 187.867 -233.335 212.993L-233.496 213.03C-230.635 199.884 -226.074 187.265 -219.942 175.529C-214.289 164.709 -207.293 154.61 -199.148 145.513C-186.458 131.339 -171.217 119.851 -155.071 112.287C-140.128 105.286 -125.224 102.122 -113.106 103.374C-93.046 105.53 -74.3408 114.41 -57.5061 129.769C-42.2885 143.655 -29.1721 162.216 -18.5224 184.943C0.84841 226.455 9.87987 279.916 7.59883 339.544C7.47327 342.812 7.30871 346.152 7.10961 349.466C5.51315 375.999 1.58543 404.611 -4.89686 436.935C-6.05758 442.737 -7.29961 448.699 -8.50032 454.462C-13.8784 480.273 -19.4401 506.965 -20.2638 531.278C-20.3104 532.651 -20.3395 534.029 -20.3531 535.375C-20.8285 598.752 19.0415 609.432 56.5131 598.293C98.1317 585.921 142.585 550.172 188.269 511.486C192.308 508.062 196.414 504.569 200.386 501.188L205.414 496.909C227.893 477.775 251.136 457.988 274.784 440.214C301.567 420.084 324.957 405.569 346.293 395.837C360.016 389.605 373.347 385.452 385.914 383.495C397.73 381.655 409.266 381.694 420.203 383.61C439.772 387.04 458.011 396.384 475.97 412.171C490.456 424.813 506.866 441.099 518.738 466.067C530.6 491.126 538.139 522.057 545.43 551.969C546.447 556.145 547.5 560.461 548.538 564.659C565.909 634.789 580.235 712.711 591.119 796.259L590.953 796.398Z" fill="#FFE492"/>
<path d="M590.466 793.741C580.274 709.527 566.97 631.01 550.924 560.374C549.718 555.066 548.509 549.56 547.34 544.237C540.896 514.895 534.232 484.554 522.747 460.705C510.837 436.109 493.486 421.793 478.082 411.033C438.542 383.145 396.591 381.138 346.062 404.711C301.911 425.412 257.87 460.541 215.278 494.512C210.797 498.087 206.162 501.782 201.657 505.358C196.367 509.558 192.334 512.745 188.585 515.688C168.508 531.439 144.931 549.431 122.28 563.446C98.2769 578.296 77.6362 587.315 59.1766 591.019C49.4698 592.966 40.3327 593.252 32.0187 591.865C23.0914 590.377 15.2879 586.98 8.82782 581.768C1.82847 576.122 -3.56706 568.35 -7.21215 558.67C-11.1648 548.173 -13.0817 535.334 -12.9125 520.517C-12.8944 519.175 -12.8607 517.792 -12.81 516.41C-11.9349 492.248 -6.71155 465.876 -1.66176 440.372C-0.490553 434.456 0.720623 428.341 1.85048 422.386C7.99854 390.072 11.6517 361.635 13.0193 335.445C13.1911 332.152 13.3277 328.837 13.4259 325.59C15.2161 266.383 5.71112 213.481 -14.0593 172.599C-37.3213 124.73 -71.3466 96.5509 -109.867 93.2496C-131.826 91.4676 -166.862 103.929 -195.632 135.783C-212.736 154.722 -224.901 178.024 -230.807 203.167L-230.966 203.197C-227.878 190.05 -223.125 177.431 -216.839 165.689C-211.038 154.852 -203.924 144.736 -195.691 135.621C-182.967 121.533 -167.77 110.057 -151.74 102.431C-136.889 95.3663 -121.99 92.0224 -109.783 93.0125C-89.5659 94.7445 -70.6598 103.215 -53.5896 118.19C-38.1682 131.719 -24.8162 149.961 -13.9071 172.413C5.87524 213.317 15.3854 266.25 13.5943 325.491C13.496 328.738 13.3588 332.058 13.186 335.353C11.8174 361.556 8.16226 390.008 2.01221 422.338C0.882703 428.296 -0.328473 434.411 -1.49967 440.327C-6.54849 465.818 -11.7671 492.176 -12.6416 516.311C-12.6913 517.691 -12.7254 519.071 -12.7424 520.411C-13.3528 573.636 13.5538 599.942 59.2323 590.778C100.599 582.481 145.807 549.032 188.566 515.485C192.316 512.542 196.347 509.355 201.637 505.155C206.142 501.579 210.776 497.884 215.258 494.309C236.226 477.585 257.907 460.292 279.845 444.61C304.653 426.875 326.322 413.749 346.087 404.483C359.768 398.1 373.099 393.556 385.709 390.98C397.654 388.539 409.349 387.784 420.47 388.733C440.717 390.463 459.603 397.683 478.207 410.804C493.618 421.571 510.983 435.894 522.903 460.512C534.394 484.376 541.059 514.725 547.506 544.076C548.675 549.399 549.884 554.905 551.09 560.213C567.135 630.857 580.441 709.38 590.636 793.6L590.466 793.741Z" fill="#FFE492"/>
<path d="M589.976 791.084C580.479 706.192 568.197 627.072 553.47 555.929C552.216 549.877 550.979 543.549 549.78 537.43C544.071 508.28 538.169 478.14 526.907 455.153C514.888 430.773 496.614 418.481 480.323 409.672C440.502 387.874 396.515 389.079 345.852 413.355C305.457 432.813 264.988 463.086 225.851 492.363C217.946 498.277 209.773 504.393 201.888 510.193C197.064 513.743 192.805 516.854 188.866 519.7C170.552 532.918 146.536 549.7 123.185 562.25C99.7238 574.858 79.6687 581.814 61.8761 583.511C42.4698 585.364 26.0737 580.297 14.4599 568.861C8.00328 562.502 3.04921 554.185 -0.264392 544.14C-3.84194 533.295 -5.53894 520.313 -5.31236 505.559C-5.28928 504.216 -5.25043 502.832 -5.19704 501.451C-4.27332 477.49 0.607989 451.471 5.32894 426.311C6.47091 420.224 7.65219 413.932 8.74976 407.802C14.5646 375.474 17.9471 347.191 19.0883 321.343C19.2328 318.07 19.342 314.776 19.413 311.55C20.7132 252.729 10.7329 200.351 -9.45108 160.082C-33.2686 112.802 -67.7539 85.3935 -106.553 82.901C-132.9 81.3369 -167.298 98.6025 -192.143 125.861C-209.433 144.83 -221.931 168.168 -228.286 193.352L-228.443 193.375C-225.122 180.215 -220.17 167.584 -213.726 155.833C-207.77 144.973 -200.528 134.833 -192.201 125.697C-179.447 111.703 -164.3 100.249 -148.397 92.5725C-133.647 85.4525 -118.755 81.9307 -106.471 82.6608C-86.0958 83.9688 -66.9898 92.0309 -49.6819 106.621C-34.0554 119.794 -20.4677 137.716 -9.29821 159.89C10.8967 200.184 20.8832 252.591 19.5823 311.449C19.5114 314.675 19.4011 317.971 19.257 321.246C18.1138 347.111 14.7303 375.406 8.91351 407.749C7.81594 413.879 6.63369 420.174 5.49172 426.261C0.773093 451.408 -4.10592 477.415 -5.0287 501.352C-5.08208 502.733 -5.12025 504.112 -5.14333 505.455C-5.95976 558.27 19.1185 587.36 61.9413 583.274C100.981 579.547 146.01 550.418 188.852 519.497C192.79 516.65 197.049 513.542 201.872 509.991C209.755 504.191 217.929 498.077 225.833 492.164C264.978 462.881 305.455 432.6 345.868 413.134C359.522 406.591 372.854 401.66 385.494 398.471C397.583 395.424 409.437 393.874 420.725 393.864C441.719 393.848 461.249 398.946 480.434 409.446C496.736 418.261 515.027 430.561 527.057 454.969C538.328 477.972 544.232 508.123 549.942 537.284C551.141 543.403 552.38 549.729 553.634 555.78C568.361 626.929 580.645 706.055 590.143 790.953L589.976 791.084Z" fill="#FFE492"/>
<path d="M589.491 788.428C580.696 702.852 569.434 623.134 556.02 551.486C554.788 544.902 553.59 537.964 552.433 531.254C547.399 502.085 542.195 471.921 531.07 449.604C518.901 425.352 499.722 415.122 482.566 408.313C442.227 392.045 397.439 396.521 345.644 422.001C309.268 439.993 272.679 465.718 237.293 490.594C225.127 499.149 213.633 507.229 202.125 515.027C197.442 518.202 193.199 521.044 189.152 523.711C163.049 540.898 142.378 552.762 124.099 561.046C101.167 571.441 81.6987 576.334 64.5831 576.002C57.9437 575.873 51.6955 574.89 45.9218 573.085C35.6869 569.885 26.9355 564.108 20.1001 555.948C7.72992 541.179 1.74027 519.191 2.29715 490.595C2.32662 489.24 2.36952 487.858 2.4263 486.483C3.3963 462.747 7.93674 437.11 12.3289 412.315C13.4412 406.033 14.5921 399.54 15.6594 393.209C21.1395 360.856 24.2481 332.733 25.1676 307.232C25.2848 303.98 25.3667 300.707 25.4103 297.501C26.2207 239.067 15.7627 187.215 -4.83289 147.553C-29.207 100.865 -64.15 74.2253 -103.227 72.5416C-129.922 71.5254 -163.432 88.5368 -188.596 115.882C-206.087 134.889 -218.935 158.28 -225.753 183.527L-225.909 183.544C-222.349 170.361 -217.191 157.709 -210.579 145.939C-204.458 135.045 -197.083 124.878 -188.653 115.718C-175.874 101.831 -160.786 90.4114 -145.018 82.6923C-130.372 75.5213 -115.503 71.8331 -103.148 72.3033C-82.6152 73.1874 -63.3083 80.8391 -45.7649 95.0452C-29.9343 107.865 -16.1124 125.467 -4.68003 147.362C15.9264 187.048 26.3906 238.929 25.5807 297.398C25.5361 300.606 25.4541 303.879 25.3373 307.133C24.4182 332.647 21.3076 360.786 15.8252 393.152C14.7579 399.482 13.6073 405.978 12.4937 412.26C8.10382 437.043 3.56471 462.669 2.596 486.384C2.54022 487.757 2.49597 489.139 2.4675 490.491C1.42571 543.895 24.0941 574.975 64.6608 575.761C103.278 576.508 149.259 549.761 189.149 523.497C193.194 520.83 197.436 517.991 202.119 514.816C213.626 507.017 225.118 498.939 237.285 490.384C272.676 465.502 309.273 439.774 345.663 421.776C359.309 415.063 372.641 409.74 385.291 405.954C397.543 402.288 409.556 399.942 420.993 398.985C442.806 397.162 462.983 400.136 482.673 408.078C499.844 414.892 519.039 425.132 531.223 449.412C542.358 471.746 547.563 501.923 552.599 531.104C553.757 537.814 554.954 544.751 556.185 551.333C569.6 622.986 580.862 702.712 589.658 788.294L589.491 788.428Z" fill="#FFE492"/>
<path d="M589.011 785.774C580.809 698.293 570.853 620.204 558.576 547.042C557.403 540.062 556.342 532.976 555.218 525.473C550.824 496.145 546.28 465.821 535.238 444.056C522.816 419.733 501.766 411.452 484.815 406.955C444.358 395.977 398.768 403.728 345.441 430.652C313.398 446.917 281.049 468.367 249.764 489.112C233.322 500.015 217.794 510.31 202.364 519.865C197.782 522.705 193.554 525.275 189.441 527.724C163.959 542.875 143.488 553.079 125.016 559.841C102.595 568.049 83.7144 570.879 67.2937 568.494C58.8569 567.268 51.1095 564.581 44.2666 560.506C37.0217 556.192 30.7902 550.312 25.7449 543.033C14.5624 526.897 9.23448 504.223 9.90968 475.637C9.94422 474.281 9.99219 472.898 10.0517 471.524C11.0647 448.048 15.2663 422.821 19.3288 398.426C20.4128 391.917 21.5339 385.185 22.5711 378.625C27.7118 346.24 30.5501 318.274 31.2476 293.129C31.3361 289.898 31.3907 286.645 31.4097 283.461C31.7302 225.414 20.7958 174.088 -0.211273 135.034C-19.6478 99.0969 -45.4546 75.4492 -74.5316 66.3595C-82.7517 63.7899 -91.2267 62.3846 -99.8998 62.1908C-126.507 61.731 -159.91 78.8743 -184.999 105.866C-202.709 124.919 -215.926 148.38 -223.22 173.711L-223.375 173.722C-219.569 160.503 -214.197 147.82 -207.41 136.025C-201.119 125.091 -193.597 114.888 -185.056 105.699C-172.257 91.9291 -157.237 80.5552 -141.615 72.8039C-126.868 65.486 -112.417 61.7337 -99.8254 61.9535C-79.1352 62.4137 -59.6284 69.6574 -41.8471 83.4779C-25.8118 95.9392 -11.7519 113.219 -0.0601102 134.839C20.9589 173.915 31.9007 225.27 31.5808 283.353C31.5631 286.537 31.5088 289.792 31.4193 293.026C30.7209 318.184 27.8816 346.163 22.7389 378.563C21.7017 385.124 20.5819 391.855 19.4969 398.366C15.4358 422.752 11.2355 447.969 10.2227 471.426C10.1643 472.798 10.1163 474.181 10.0814 475.534C8.81973 528.988 29.7056 562.781 67.3846 568.254C105.512 573.791 152.646 549.384 189.45 527.504C193.563 525.055 197.79 522.484 202.37 519.647C217.797 510.096 233.325 499.798 249.765 488.897C281.053 468.15 313.408 446.694 345.462 430.424C372.917 416.563 397.712 407.957 421.266 404.113C443.982 400.406 464.803 401.258 484.918 406.716C496.42 409.767 505.277 413.482 512.795 418.405C522.5 424.762 529.892 433.089 535.394 443.863C546.447 465.647 550.992 495.988 555.389 525.33C556.512 532.832 557.575 539.916 558.744 546.896C571.022 620.06 580.979 698.155 589.182 785.641L589.011 785.774Z" fill="#FFE492"/>
<path d="M588.52 783.116C581.039 694.93 572.075 616.257 561.12 542.595C560.036 535.308 559.084 527.851 558.075 519.957C554.297 490.38 550.392 459.793 539.396 438.502C526.772 414.212 504.792 408.154 487.055 405.59C447.007 399.58 400.614 410.605 345.23 439.291C317.901 453.521 290.221 470.931 263.452 487.768C242.291 501.077 222.304 513.65 202.598 524.691C198.142 527.19 193.81 529.558 189.724 531.726C165.107 544.775 144.24 553.572 125.929 558.619C104.003 564.663 85.7074 565.435 69.9971 560.976C62.0042 558.706 54.719 555.025 48.3502 550.033C41.6741 544.798 35.9661 538.094 31.3854 530.101C21.3873 512.655 16.7198 489.294 17.5145 460.666C17.5548 459.315 17.6065 457.93 17.6704 456.549C18.7238 433.376 22.5858 408.604 26.3197 384.647C27.3765 377.87 28.4691 370.858 29.4761 364.025C34.276 331.597 36.8417 303.791 37.3223 279.012C37.3835 275.801 37.4108 272.569 37.4025 269.406C37.233 211.745 25.821 160.944 4.40232 122.498C-21.0846 76.9955 -56.9491 51.897 -96.5813 51.8263C-123.073 51.9051 -156.35 69.1595 -181.356 95.7807C-199.304 114.89 -212.907 138.438 -220.697 163.883L-220.849 163.886C-216.788 150.622 -211.194 137.896 -204.221 126.064C-197.747 115.081 -190.073 104.834 -181.411 95.612C-168.6 81.9735 -153.655 70.656 -138.189 62.8824C-123.561 55.53 -109.148 51.6247 -96.5059 51.5867C-75.6577 51.6257 -55.9504 58.4563 -37.9337 71.8932C-21.6953 84.0033 -7.40104 100.963 4.55215 122.303C25.985 160.77 37.4022 211.601 37.5708 269.296C37.5805 272.46 37.5535 275.695 37.4913 278.908C37.0111 303.7 34.443 331.519 29.6421 363.96C28.6365 370.794 27.5426 377.805 26.4861 384.585C22.7535 408.531 18.8929 433.293 17.8401 456.45C17.7772 457.829 17.7255 459.214 17.6849 460.562C16.1707 515.137 34.7825 550.717 70.0971 560.736C98.7501 568.869 136.768 559.578 189.739 531.499C193.823 529.33 198.153 526.965 202.608 524.466C222.31 513.426 242.295 500.858 263.453 487.548C290.226 470.709 317.91 453.296 345.247 439.063C373.172 424.598 398.121 414.842 421.525 409.231C445.234 403.548 466.7 402.275 487.147 405.345C504.903 407.91 526.908 413.978 539.551 438.306C550.558 459.622 554.466 490.223 558.246 519.814C559.253 527.707 560.207 535.161 561.29 542.446C572.247 616.112 581.21 694.79 588.69 782.98L588.52 783.116Z" fill="#FFE492"/>
<path d="M588.036 780.46C581.282 691.569 573.314 612.309 563.672 538.153C562.694 530.625 561.869 522.862 560.996 514.644C557.822 484.748 554.538 453.834 543.563 432.954C530.718 408.669 507.818 404.847 489.303 404.229C449.839 402.725 403.995 416.614 345.026 447.938C322.878 459.761 300.384 473.294 278.631 486.38C252.21 502.274 227.254 517.289 202.836 529.526C198.435 531.734 194.12 533.825 190.012 535.736C165.83 546.982 145.169 554.069 126.849 557.402C116.587 559.269 106.962 559.936 98.2408 559.387C88.9386 558.8 80.3474 556.808 72.7056 553.467C57.2017 546.688 45.1997 534.478 37.0335 517.176C28.2143 498.491 24.2075 474.446 25.1273 445.705C25.1743 444.345 25.2311 442.96 25.2946 441.587C26.3849 418.771 29.9064 394.509 33.3123 371.048C34.3427 363.946 35.4094 356.602 36.3866 349.438C40.8406 316.958 43.1348 289.308 43.4012 264.906C43.436 261.714 43.4347 258.502 43.3994 255.362C42.741 198.085 30.8526 147.812 9.02041 109.978C-17.0227 65.0693 -53.346 40.7419 -93.2573 41.4744C-136.075 42.452 -196.005 85.7754 -218.165 154.064L-218.316 154.06C-212.773 136.977 -204.822 120.926 -194.686 106.348C-185.429 93.0346 -174.534 81.1869 -162.307 71.1382C-150.939 61.794 -138.943 54.4085 -126.654 49.1852C-114.967 44.2179 -103.392 41.4669 -93.1847 41.2339C-72.1789 40.849 -52.2716 47.2716 -34.0182 60.3253C-17.5756 72.0819 -3.04575 88.7219 9.16787 109.784C31.011 147.643 42.9068 197.946 43.5667 255.255C43.6024 258.398 43.6037 261.609 43.5692 264.804C43.3028 289.217 41.0067 316.882 36.5517 349.375C35.5744 356.539 34.5078 363.883 33.4764 370.988C30.0722 394.441 26.552 418.693 25.4627 441.495C25.3978 442.868 25.3397 444.254 25.2936 445.611C23.5279 500.846 40.4053 539.066 72.8134 553.238C100.251 565.231 138.593 559.436 190.033 535.514C194.139 533.602 198.452 531.513 202.852 529.306C227.264 517.072 252.217 502.058 278.634 486.166C300.389 473.077 322.886 459.543 345.038 447.719C404.03 416.381 449.895 402.487 489.381 403.991C501.823 404.405 511.454 406.305 519.693 409.973C530.226 414.662 538.082 422.115 543.713 432.762C554.701 453.665 557.986 484.597 561.163 514.51C562.036 522.726 562.86 530.488 563.838 538.014C573.481 612.175 581.449 691.438 588.203 780.334L588.036 780.46Z" fill="#FFE492"/>
<path d="M587.553 777.805C581.534 688.197 574.556 608.353 566.225 533.709C565.363 525.986 564.678 517.964 563.954 509.468C561.372 479.204 558.702 447.908 547.728 427.403C534.502 402.829 509.332 401.63 491.551 402.866C443.376 406.021 390.344 431.79 344.822 456.586C328.439 465.548 311.768 475.255 295.644 484.641C263.301 503.471 232.752 521.256 203.075 534.362C198.71 536.291 194.413 538.103 190.301 539.75C166.486 549.263 146.032 554.639 127.773 556.183C107.073 557.935 89.4586 554.496 75.416 545.959C60.9904 537.189 49.9773 523.155 42.6855 504.248C35.0363 484.418 31.6903 459.69 32.7382 430.747C32.7906 429.389 32.8511 428.001 32.9194 426.624C34.0394 404.243 37.2212 380.572 40.2975 357.678C41.3066 350.175 42.3477 342.419 43.2977 334.851C47.4609 301.855 49.4245 275.149 49.4819 250.801C49.4895 247.629 49.4612 244.441 49.3982 241.319C48.2461 184.43 35.8801 134.683 13.6374 97.4539C-12.963 53.1424 -49.7453 29.5832 -89.9345 31.1194C-133.271 32.9504 -192.137 75.7636 -215.636 144.246L-215.783 144.234C-209.953 127.244 -201.817 111.27 -191.602 96.7561C-182.241 83.4588 -171.311 71.6063 -159.114 61.5321C-147.74 52.1365 -135.754 44.6655 -123.484 39.322C-111.801 34.2336 -100.175 31.3155 -89.8618 30.879C-68.697 30.0706 -48.5913 36.0847 -30.1014 48.7524C-13.4547 60.1554 1.31078 76.4757 13.7858 97.2584C36.0428 134.507 48.415 184.284 49.5648 241.207C49.6268 244.331 49.6554 247.522 49.6492 250.694C49.5932 275.053 47.6262 301.773 43.4621 334.782C42.512 342.351 41.47 350.109 40.4609 357.612C37.3863 380.498 34.2061 404.163 33.0847 426.533C33.0164 427.91 32.9556 429.294 32.9032 430.652C30.8667 486.914 46.0056 527.783 75.5319 545.733C102.013 561.831 139.564 559.798 190.331 539.52C194.441 537.875 198.736 536.065 203.099 534.136C232.768 521.033 263.312 503.251 295.651 484.422C311.774 475.036 328.448 465.327 344.833 456.363C375.443 439.692 399.983 427.976 422.056 419.493C448.04 409.507 470.794 403.991 491.619 402.627C504.336 401.743 514.649 402.766 523.149 405.758C534.092 409.609 542.182 416.626 547.878 427.211C558.867 447.741 561.538 479.056 564.121 509.339C564.846 517.833 565.53 525.854 566.393 533.573C574.725 608.22 581.701 688.068 587.722 777.68L587.553 777.805Z" fill="#FFE492"/>
<path d="M587.064 775.146C581.783 684.82 575.8 604.391 568.772 529.261C568.034 521.383 567.498 513.136 566.931 504.405C564.936 473.732 562.874 442.014 551.888 421.851C538.414 397.247 512.28 398.453 493.793 401.503C448.208 408.867 399.261 434.721 344.612 465.229C334.744 470.76 324.695 476.511 314.975 482.074C277.596 503.469 238.946 525.591 203.308 539.194C198.977 540.849 194.695 542.384 190.583 543.757C167.402 551.482 146.579 555.25 128.69 554.956C108.426 554.623 91.4121 549.068 78.1163 538.447C64.7612 527.777 54.7394 511.919 48.3283 491.312C41.8408 470.458 39.1518 445.047 40.3367 415.785C40.3942 414.426 40.4597 413.038 40.5307 411.662C41.6753 389.82 44.5137 366.844 47.2585 344.625C48.2474 336.619 49.2701 328.342 50.1943 320.265C53.9993 287.192 55.6998 260.638 55.5469 236.698C55.5268 233.555 55.4708 230.384 55.3812 227.278C53.7463 170.77 40.9053 121.549 18.2473 84.9291C-8.909 41.2147 -46.15 18.4267 -86.6187 20.7633C-128.93 23.3532 -187.642 64.0668 -213.114 134.423L-213.258 134.404C-207.14 117.504 -198.818 101.609 -188.525 87.16C-179.061 73.8763 -168.095 62.0218 -155.93 51.9217C-133.487 33.2903 -108.199 21.8459 -86.5487 20.522C-65.2274 19.2921 -44.9207 24.8958 -26.193 37.178C-9.34324 48.2298 5.65755 64.2276 18.394 84.7304C41.0649 121.37 53.9125 170.622 55.5522 227.159C55.6421 230.268 55.6981 233.438 55.7185 236.584C55.8705 260.537 54.1701 287.102 50.3627 320.188C49.4375 328.267 48.4162 336.544 47.4272 344.55C44.6832 366.764 41.8453 389.735 40.7007 411.566C40.6284 412.942 40.5639 414.328 40.5064 415.687C38.1353 474.231 51.1843 516.603 78.2417 538.223C103.297 558.241 141.104 560.025 190.619 543.524C194.73 542.151 199.008 540.617 203.336 538.964C238.962 525.365 277.607 503.247 314.979 481.855C324.699 476.291 334.748 470.54 344.617 465.01C368.539 451.655 396.244 436.421 422.313 424.62C449.582 412.277 472.981 404.638 493.847 401.267C507.003 399.098 517.716 399.188 526.594 401.543C537.792 404.512 546.349 411.281 552.033 421.66C556.955 430.692 560.529 442.993 562.958 459.266C565.105 473.635 566.116 489.216 567.096 504.281C567.663 513.01 568.199 521.256 568.936 529.132C575.965 604.265 581.949 684.696 587.23 775.025L587.064 775.146Z" fill="#FFE492"/>
<path d="M586.582 772.49C582.045 681.44 577.054 600.426 571.324 524.819C570.716 516.813 570.335 508.371 569.931 499.435C568.521 468.32 567.065 436.146 556.054 416.305C545.746 397.805 526.115 392.519 496.039 400.144C454.04 410.687 409.513 436.363 362.37 463.549C356.499 466.935 350.431 470.434 344.406 473.881C342.046 475.235 339.682 476.593 337.32 477.95C292.459 503.718 246.071 530.364 203.547 544.032C199.247 545.415 194.983 546.674 190.872 547.771C167.951 553.878 147.343 555.884 129.622 553.731C109.78 551.319 93.3625 543.651 80.8297 530.939C68.5306 518.463 59.5001 500.78 53.9895 478.381C48.6482 456.67 46.6165 430.579 47.9521 400.828C48.0146 399.468 48.0852 398.078 48.1599 396.701C49.3167 375.559 51.8109 353.438 54.2208 332.045C55.1977 323.381 56.2065 314.422 57.1108 305.677C60.5523 272.514 61.991 246.112 61.6331 222.591C61.5854 219.466 61.5024 216.319 61.3855 213.234C59.2556 157.113 45.9379 108.415 22.8674 72.4058C-4.84441 29.2913 -42.5459 7.27108 -83.2926 10.4087C-125.17 13.7485 -184.014 54.9047 -210.582 124.604L-210.725 124.581C-204.316 107.769 -195.81 91.9527 -185.441 77.5724C-175.873 64.3027 -164.87 52.4412 -152.738 42.3202C-130.329 23.625 -104.994 11.908 -83.2261 10.1716C-61.7458 8.51822 -41.2396 13.7111 -22.2764 25.6097C-5.22153 36.3056 10.0162 51.984 23.0142 72.2071C46.0966 108.239 59.4242 156.964 61.5525 213.113C61.6694 216.199 61.753 219.351 61.8007 222.476C62.1577 246.01 60.7214 272.42 57.2775 305.596C56.3746 314.341 55.3634 323.303 54.3879 331.967C51.9773 353.354 49.4851 375.471 48.3286 396.605C48.254 397.982 48.183 399.369 48.1204 400.729C45.4056 461.223 56.7629 506.171 80.9646 530.718C104.855 554.95 141.85 560.605 190.92 547.53C195.028 546.433 199.29 545.176 203.587 543.794C246.096 530.133 292.476 503.492 337.328 477.726C339.692 476.368 342.054 475.012 344.415 473.658C350.439 470.211 356.507 466.712 362.377 463.328C409.53 436.137 454.069 410.454 496.088 399.906C509.675 396.461 520.786 395.619 530.054 397.329C541.654 399.469 550.451 405.789 556.204 416.11C561.135 424.996 564.593 437.311 566.773 453.759C568.695 468.271 569.409 484.053 570.101 499.315C570.506 508.249 570.887 516.688 571.494 524.691C577.225 600.301 582.216 681.318 586.751 772.371L586.582 772.49Z" fill="#FFE492"/>
<path d="M586.089 769.833C582.598 685.218 578.487 601.286 573.868 520.372C573.379 512.175 573.15 503.461 572.906 494.238C572.115 464.234 571.218 430.227 560.209 410.754C549.703 392.219 529.445 388.302 498.277 398.778C461.247 411.164 423.164 434.492 382.845 459.189C370.219 466.923 357.161 474.923 344.191 482.522C321.537 495.827 297.213 509.795 272.839 521.823C246.735 534.706 224.144 543.548 203.773 548.861C199.493 549.977 195.246 550.959 191.148 551.776C168.482 556.288 148.101 556.517 130.569 552.456C111.163 547.958 95.3348 538.193 83.5274 523.422C61.8192 495.923 52.4054 449.642 55.5492 385.863C55.6168 384.502 55.6925 383.111 55.7699 381.734C56.9217 361.541 59.063 340.526 61.1347 320.202C62.1092 310.637 63.1183 300.744 64.0061 291.088C67.082 257.819 68.2551 231.57 67.6981 208.484C67.6227 205.377 67.5124 202.251 67.3685 199.189C64.7548 143.451 50.9584 95.2819 27.4763 59.8802C-0.791412 17.3629 -38.9526 -3.88396 -79.9779 0.0517975C-122.452 4.20973 -180.088 44.9542 -208.062 114.783L-208.202 114.75C-201.501 98.0241 -192.808 82.2876 -182.365 67.9755C-172.69 54.7179 -161.651 42.8516 -149.554 32.7091C-138.158 23.1531 -126.194 15.4223 -113.997 9.7292C-102.156 4.20391 -90.6883 0.866522 -79.913 -0.188443C-58.2748 -2.263 -37.5677 2.51951 -18.368 14.0321C-1.11108 24.3792 14.362 39.7351 27.6213 59.6783C51.1177 95.1004 64.9216 143.299 67.5388 199.064C67.6817 202.129 67.7936 205.258 67.869 208.365C68.4251 231.464 67.252 257.723 64.1762 291.003C63.2874 300.662 62.2783 310.554 61.3027 320.122C59.2321 340.443 57.0904 361.455 55.9389 381.641C55.8592 383.02 55.7859 384.408 55.7169 385.769C52.576 449.498 61.9799 495.742 83.6677 523.214C106.106 551.282 143.291 561.077 191.203 551.537C195.298 550.72 199.544 549.74 203.82 548.626C249.365 536.751 298.141 509.352 344.197 482.303C357.166 474.704 370.221 466.706 382.847 458.972C423.175 434.27 461.267 410.936 498.314 398.545C529.531 388.053 549.827 391.981 560.358 410.558C565.288 419.28 568.621 431.577 570.549 448.148C572.248 462.76 572.667 478.705 573.075 494.123C573.319 503.347 573.548 512.058 574.037 520.249C578.657 601.166 582.768 685.098 586.258 769.715L586.089 769.833Z" fill="#FFE492"/>
<path d="M585.609 767.178C582.83 682.323 579.739 597.79 576.422 515.928C576.078 507.689 576.012 498.874 575.94 489.542C575.709 459.019 575.446 424.422 564.378 405.201C553.667 386.628 532.78 384.081 500.527 397.41C466.748 411.344 431.137 434.796 396.697 457.479C379.428 468.852 361.571 480.613 343.99 491.165C316.232 507.843 293.631 520.119 272.862 529.802C247.252 541.742 224.731 549.556 204.015 553.692C199.762 554.542 195.531 555.245 191.44 555.782C170.127 558.575 150.902 557.35 134.245 552.145C133.319 551.856 132.405 551.554 131.496 551.241C112.472 544.677 97.2468 532.788 86.2416 515.907C80.9432 507.728 76.4714 498.049 72.9522 487.14C69.6437 476.887 67.0743 465.224 65.3144 452.478C62.1477 429.546 61.4432 402.86 63.1616 370.899C63.2366 369.525 63.314 368.148 63.3961 366.767C64.5137 347.942 66.2922 328.455 68.013 309.608C69.0053 298.73 70.0331 287.479 70.9197 276.493C73.6582 242.648 74.5421 217.32 73.7799 194.372C73.6772 191.285 73.5397 188.18 73.3685 185.138C70.2641 129.792 55.9914 82.1491 32.0978 47.3551C3.27457 5.43765 -35.3467 -15.0385 -76.6504 -10.3046C-118.663 -5.44665 -176.421 35.7059 -205.528 104.96L-205.664 104.921C-192.107 72.6628 -171.598 44.3698 -146.357 23.1015C-134.948 13.4883 -122.994 5.67217 -110.823 -0.135402C-98.9801 -5.78522 -87.4617 -9.28746 -76.5856 -10.5448C-54.7897 -13.0433 -33.8828 -8.66884 -14.4467 2.4578C3.01337 12.4537 18.7221 27.4898 32.2425 47.1505C56.1507 81.9676 70.431 129.64 73.5381 185.018C73.7083 188.062 73.8476 191.171 73.9503 194.257C74.7114 217.218 73.8286 242.555 71.0878 276.413C70.2002 287.401 69.1738 298.652 68.1801 309.53C66.4603 328.374 64.6815 347.859 63.5645 366.679C63.4824 368.06 63.4037 369.436 63.3296 370.808C59.6775 438.724 67.2196 486.121 86.387 515.708C113.001 556.534 158.238 559.906 191.501 555.546C195.589 555.008 199.817 554.307 204.069 553.456C251.715 543.942 303.875 515.054 343.993 490.951C361.571 480.403 379.427 468.642 396.693 457.271C431.14 434.585 466.76 411.124 500.555 397.185C514.987 391.22 526.895 388.509 536.955 388.9C549.362 389.382 558.638 394.801 564.524 405.01C569.481 413.617 572.706 425.971 574.386 442.776C575.866 457.582 575.989 473.775 576.108 489.438C576.179 498.767 576.245 507.579 576.59 515.813C579.907 597.675 582.998 682.208 585.778 767.063L585.609 767.178Z" fill="#FFE492"/>
<path d="M585.123 764.522L578.972 511.486C578.771 503.222 578.867 494.328 578.967 484.914C579.299 453.847 579.675 418.636 568.541 399.654C557.772 381.301 535.645 380.088 502.771 396.052C471.168 411.397 438.352 434.684 406.616 457.204C385.929 471.884 364.539 487.062 343.782 499.817C281.394 538.153 233.077 557.211 191.727 559.795C174.573 560.866 158.829 559.182 144.75 554.781C140.482 553.447 136.371 551.864 132.417 550.032C113.768 541.395 99.1433 527.387 88.9498 508.399C79.5031 490.799 73.6177 468.283 70.9632 439.562C68.8429 416.628 68.7808 390.057 70.7693 355.943C71.818 337.939 73.3244 319.364 74.7812 301.4C78.0762 260.747 81.4841 218.711 79.8588 180.269C77.3643 121.307 62.4444 71.016 36.7125 34.8313C7.33412 -6.48352 -31.7462 -26.1914 -73.3284 -20.6593C-113.587 -15.3036 -171.337 23.2173 -203.001 95.1414L-203.134 95.0944C-188.981 62.946 -168.244 34.7296 -143.166 13.4953C-120.491 -5.70435 -95.6674 -17.9186 -73.2659 -20.8977C-51.3121 -23.8173 -30.2043 -19.8532 -10.5331 -9.11292C7.13104 0.529391 23.0744 15.2481 36.8563 34.629C49.5888 52.5334 59.7475 74.0381 67.0512 98.5473C74.4156 123.262 78.7826 150.715 80.0281 180.147C81.6552 218.602 78.2473 260.649 74.9509 301.312C73.4951 319.273 71.9898 337.847 70.9407 355.848C68.0382 405.624 67.4812 467.922 89.1033 508.203C113.9 554.396 158.635 561.623 191.798 559.552C233.126 556.971 281.422 537.92 343.786 499.597C364.534 486.848 385.923 471.67 406.606 456.994C438.349 434.47 471.173 411.178 502.792 395.824C535.722 379.833 557.895 381.055 568.69 399.457C573.675 407.956 576.794 420.375 578.224 437.428C579.482 452.439 579.307 468.895 579.137 484.808C579.037 494.222 578.942 503.111 579.142 511.371L585.294 764.408L585.123 764.522Z" fill="#FFE492"/>
<path d="M591.618 747.249C592.315 677.548 591.68 620.613 589.62 568.077C588.627 542.558 587.26 517.318 585.556 493.057C585.041 485.719 584.729 477.987 584.399 469.8C583.57 449.223 582.713 427.947 578.475 411.031C576.206 401.935 573.237 395.002 569.4 389.836C557.667 373.874 535.358 375.028 503.091 393.271C486.4 402.693 469.941 414.207 456.042 424.228C441.328 434.836 426.143 446.86 411.457 458.487C390.349 475.202 368.523 492.485 347.033 506.47C333.942 515.012 321.248 522.334 309.3 528.232C285.397 540.033 261.56 548.462 238.454 553.286C224.208 556.194 210.589 557.5 197.975 557.167C187.109 556.869 176.721 555.411 167.1 552.831C152.698 548.973 139.834 542.498 128.867 533.58C117.206 524.097 107.608 511.779 100.34 496.965C93.8602 483.756 89.0716 468.178 85.7031 449.339C79.4156 414.256 78.9005 375.802 79.1547 346.22C79.3054 331.628 79.693 316.82 80.0675 302.5C81.1489 261.26 82.1694 222.308 78.0817 186.049C74.6769 156.642 67.8078 130.036 57.6623 106.964C49.8663 89.2339 39.8242 73.5874 27.8164 60.4578C24.9551 57.333 21.9661 54.3199 18.9333 51.5083C5.8708 39.4154 -10.2743 29.1527 -29.0517 21.0046C-47.963 12.7429 -65.8651 9.18015 -83.7799 10.1193C-93.8971 10.625 -104.533 13.0554 -115.394 17.3399C-153.74 32.4674 -189.01 66.9597 -209.743 109.609L-209.901 109.53C-204.374 98.1608 -197.827 87.3068 -190.441 77.2652C-183.425 67.7275 -175.606 58.8579 -167.202 50.9023C-151.326 35.8751 -133.397 24.169 -115.355 17.0518C-104.476 12.7594 -93.824 10.3262 -83.6912 9.82C-65.7581 8.88129 -47.8415 12.4459 -28.915 20.7151C-10.1268 28.8666 6.02577 39.1369 19.0971 51.2379C22.1329 54.053 25.1233 57.0666 27.9863 60.1946C40.0042 73.3326 50.0545 88.9924 57.8563 106.738C68.0089 129.825 74.8835 156.454 78.288 185.88C82.3785 222.16 81.3567 261.123 80.2767 302.374C79.9008 316.694 79.5142 331.499 79.3632 346.089C79.1086 375.657 79.624 414.092 85.9087 449.153C89.2735 467.973 94.0562 483.536 100.529 496.729C114.753 525.72 137.19 544.497 167.22 552.537C176.834 555.114 187.214 556.57 198.072 556.867C210.677 557.198 224.287 555.894 238.52 552.988C261.613 548.167 285.435 539.744 309.323 527.95C321.263 522.057 333.95 514.738 347.029 506.203C368.507 492.225 390.329 474.946 411.43 458.237C426.118 446.608 441.306 434.579 456.027 423.968C469.933 413.941 486.399 402.424 503.102 392.996C517.469 384.873 530.053 380.093 540.51 378.787C553.354 377.182 563.135 380.814 569.578 389.58C573.426 394.763 576.403 401.715 578.679 410.832C582.923 427.773 583.781 449.063 584.61 469.653C584.94 477.837 585.252 485.57 585.767 492.902C587.472 517.166 588.84 542.409 589.832 567.933C591.891 620.475 592.526 677.415 591.829 747.121L591.618 747.249Z" fill="#FFE492"/>
<path d="M598.116 729.969C601.14 659.812 601.237 600.345 598.412 548.17C597.05 522.689 594.941 497.946 592.143 474.627C591.4 468.44 590.785 462.06 590.133 455.306C588.178 435.079 586.157 414.164 580.604 398.395C577.811 390.406 574.43 384.394 570.263 380.013C554.312 363.234 525.109 376.445 503.417 390.482C488.065 400.388 472.833 412.254 457.282 424.558C443.671 435.327 430.097 447.246 415.727 459.863C394.398 478.593 372.342 497.959 350.288 513.116C337.173 522.172 324.379 529.547 312.26 535.036C289.685 545.263 267.049 551.609 243.059 554.439C229.633 556.022 216.567 556.055 204.223 554.533C193.817 553.228 183.903 550.825 174.757 547.384C161.147 542.274 148.985 534.622 138.605 524.644C127.705 514.163 118.663 501.001 111.731 485.524C105.657 471.966 101.008 456.046 97.5164 436.857C91.1578 402.047 88.8436 364.937 87.5398 336.495C87.0572 325.966 86.6692 315.403 86.2944 305.184C84.801 264.492 83.392 226.054 76.3068 191.827C71.0119 166.247 62.5555 143.374 51.1748 123.845C42.5638 109.069 32.0147 96.7171 18.9267 86.0836C15.9051 83.6318 12.765 81.2918 9.5949 79.1285C-4.33931 69.65 -20.5475 62.6453 -40.2865 54.4703C-54.4875 48.5131 -73.4516 41.5853 -94.2311 40.8898C-104.053 40.515 -114.333 41.9826 -124.787 45.2462C-161.593 56.7423 -195.872 86.2094 -216.486 124.074L-216.661 123.953C-211.196 113.912 -204.774 104.395 -197.576 95.664C-190.717 87.3452 -183.111 79.6903 -174.97 72.9049C-159.499 60.0155 -142.125 50.3292 -124.725 44.8959C-114.252 41.6252 -103.952 40.1557 -94.1136 40.5305C-73.3134 41.2244 -54.3354 48.1593 -40.125 54.1194C-20.3792 62.2965 -4.16561 69.3029 9.77842 78.7871C12.9502 80.9536 16.0931 83.2945 19.1187 85.7475C32.2185 96.3927 42.7782 108.756 51.399 123.549C62.7913 143.097 71.2552 165.989 76.5559 191.594C83.6456 225.846 85.0573 264.295 86.55 305.003C86.9245 315.219 87.3125 325.782 87.7961 336.309C89.1012 364.741 91.4137 401.837 97.7675 436.629C101.254 455.798 105.899 471.701 111.965 485.243C125.596 515.675 146.777 536.463 174.917 547.03C184.056 550.466 193.96 552.869 204.356 554.17C216.688 555.691 229.743 555.66 243.156 554.077C267.127 551.25 289.743 544.909 312.299 534.692C324.403 529.209 337.18 521.844 350.28 512.797C372.316 497.653 394.362 478.294 415.682 459.575C430.058 446.952 443.634 435.031 457.254 424.256C472.812 411.945 488.05 400.075 503.418 390.158C517.48 381.057 529.985 375.258 540.589 372.916C553.447 370.077 563.5 372.356 570.471 379.687C574.651 384.086 578.045 390.118 580.846 398.131C586.409 413.929 588.431 434.863 590.387 455.106C591.04 461.857 591.657 468.236 592.398 474.42C595.197 497.747 597.305 522.498 598.669 547.987C601.492 600.175 601.397 659.653 598.371 729.825L598.116 729.969Z" fill="#FFE492"/>
<path d="M604.614 712.691C609.984 641.12 610.832 580.795 607.204 528.268C605.469 502.825 602.618 478.581 598.73 456.203C597.9 451.419 597.099 446.367 596.324 441.484C593.128 421.308 589.822 400.446 582.734 385.765C579.422 378.839 575.626 373.745 571.131 370.194C553.876 356.562 524.962 372.187 503.745 387.693C489.388 398.15 475.022 410.597 461.127 422.637L458.525 424.891C445.915 435.812 433.192 448.135 419.72 461.184C398.269 481.963 376.089 503.446 353.543 519.765C340.386 529.347 327.492 536.776 315.218 541.845C293.817 550.682 272.349 555.05 247.66 555.595C234.894 555.876 222.381 554.633 210.47 551.898C200.525 549.584 191.085 546.235 182.412 541.936C156.147 528.943 136.199 506.114 123.12 474.084C117.466 460.238 112.954 443.98 109.33 424.378C103.172 391.263 99.3305 358.003 95.9255 326.775C95.468 322.588 95.0222 318.432 94.5792 314.309C89.9795 271.537 85.6363 231.137 74.5334 197.617C67.2851 175.733 57.2418 156.595 44.6856 140.734C35.4667 129.091 24.1325 119.598 10.0377 111.715C6.85929 109.943 3.56901 108.273 0.257194 106.754C-8.08217 102.951 -17.3343 99.8648 -27.1304 96.5978C-34.9986 93.9733 -43.134 91.26 -51.5243 87.9433C-67.6857 81.437 -86.0032 74.0653 -104.688 71.6696C-114.328 70.4342 -124.252 70.9366 -134.185 73.164C-169.438 81.071 -202.729 105.517 -223.239 138.557L-223.42 138.376C-218.013 129.664 -211.717 121.485 -204.709 114.066C-198.008 106.971 -190.615 100.526 -182.738 94.91C-167.672 84.1697 -150.851 76.5085 -134.097 72.7505C-124.141 70.5168 -114.196 70.0129 -104.537 71.2515C-85.8341 73.6504 -67.5081 81.0273 -51.3399 87.5357C-42.954 90.8484 -34.8196 93.5641 -26.9542 96.1877C-17.154 99.456 -7.89918 102.543 0.447293 106.351C3.7608 107.874 7.05514 109.544 10.2362 111.317C24.3489 119.209 35.6964 128.713 44.9279 140.374C57.4993 156.253 67.5531 175.412 74.8096 197.32C85.9227 230.87 90.2684 271.29 94.8691 314.081C95.3122 318.204 95.7604 322.358 96.2155 326.546C99.6198 357.769 103.459 391.02 109.616 424.124C113.237 443.705 117.743 459.947 123.391 473.776C136.451 505.765 156.375 528.563 182.606 541.54C191.269 545.832 200.699 549.179 210.633 551.49C222.532 554.22 235.033 555.462 247.785 555.182C272.45 554.638 293.893 550.275 315.265 541.45C327.513 536.392 340.383 528.977 353.517 519.411C376.035 503.113 398.201 481.641 419.64 460.875C433.117 447.82 445.847 435.49 458.467 424.562L461.069 422.308C474.971 410.263 489.345 397.807 503.718 387.339C525.002 371.783 554.013 356.116 571.348 369.81C575.864 373.378 579.675 378.49 582.998 385.444C590.102 400.156 593.412 421.04 596.611 441.238C597.384 446.122 598.185 451.173 599.015 455.954C602.904 478.343 605.757 502.601 607.492 528.057C611.121 580.606 610.273 640.953 604.901 712.547L604.614 712.691Z" fill="#FFE492"/>
<path d="M611.111 695.409C618.733 623.437 620.377 560.505 615.995 508.367C613.888 482.965 610.296 459.217 605.318 437.782C604.599 434.686 603.878 431.481 603.18 428.381C598.569 407.904 593.801 386.726 584.868 373.141C581.052 367.266 576.844 363.093 572.002 360.378C553.427 349.967 524.812 367.969 504.076 384.904C491.228 395.354 478.483 407.458 466.158 419.164C464.025 421.19 461.895 423.212 459.768 425.224C448.079 436.276 436.137 448.97 423.494 462.409C401.999 485.255 379.774 508.878 356.797 526.417C343.303 536.716 330.671 543.99 318.172 548.659C292.031 558.422 270.182 558.23 252.257 556.757C240.134 555.759 228.174 553.243 216.712 549.272C207.234 545.95 198.268 541.651 190.064 536.497C165.731 521.231 147.039 496.387 134.507 462.651C129.292 448.617 124.92 432.018 121.14 411.907C117.305 391.632 113.95 372.228 110.705 353.461C108.501 340.706 106.418 328.659 104.309 317.066C96.3408 273.244 88.4661 234.443 72.7613 203.413C63.5614 185.239 51.9333 169.833 38.1985 157.625C28.3549 148.875 16.5818 142.433 1.15179 137.346C-2.18038 136.257 -5.62214 135.258 -9.07739 134.38C-14.3336 133.064 -19.902 132.006 -25.7964 130.889C-37.1073 128.744 -49.9298 126.312 -62.764 121.417C-67.6507 119.552 -72.5866 117.533 -77.3597 115.578C-89.6369 110.552 -102.332 105.355 -115.146 102.447C-124.558 100.313 -134.128 99.8525 -143.588 101.079C-177.267 105.451 -209.57 124.878 -229.999 153.047L-230.172 152.789C-224.822 145.412 -218.654 138.573 -211.839 132.46C-205.294 126.59 -198.115 121.356 -190.505 116.906C-175.842 108.331 -159.577 102.695 -143.466 100.604C-133.983 99.3739 -124.391 99.8337 -114.96 101.974C-102.131 104.884 -89.4315 110.085 -77.1475 115.113C-72.3757 117.067 -67.4399 119.086 -62.5545 120.951C-49.7325 125.842 -36.9205 128.273 -25.6149 130.417C-19.7179 131.535 -14.1481 132.593 -8.88646 133.91C-5.42716 134.79 -1.9827 135.79 1.35354 136.88C16.8062 141.971 28.5952 148.427 38.4561 157.19C52.2071 169.413 63.8519 184.838 73.0627 203.037C80.1574 217.052 86.213 233.893 91.5771 254.518C96.3796 272.982 100.271 292.759 104.638 316.773C106.745 328.368 108.828 340.415 111.034 353.171C114.279 371.934 117.633 391.339 121.467 411.61C125.243 431.702 129.61 448.283 134.818 462.302C147.333 495.992 165.999 520.802 190.298 536.046C198.492 541.194 207.446 545.487 216.914 548.806C228.363 552.773 240.309 555.287 252.418 556.282C270.32 557.755 292.141 557.946 318.236 548.2C330.699 543.545 343.299 536.289 356.757 526.016C379.695 508.507 401.903 484.903 423.38 462.076C436.031 448.629 447.98 435.928 459.681 424.864C461.809 422.852 463.938 420.83 466.069 418.807C478.402 407.092 491.155 394.98 504.02 384.517C517.51 373.499 529.87 365.643 540.754 361.166C553.646 355.863 564.235 355.446 572.225 359.927C577.091 362.655 581.32 366.848 585.152 372.746C594.109 386.367 598.882 407.571 603.499 428.074C604.197 431.174 604.918 434.379 605.637 437.472C610.618 458.924 614.212 482.694 616.321 508.115C618.647 535.8 619.292 566.716 618.235 600.002C617.301 629.422 615.013 661.473 611.436 695.261L611.111 695.409Z" fill="#FFE492"/>
<path d="M617.613 678.125C627.572 604.751 629.986 540.941 624.789 488.466C622.309 463.104 617.975 439.856 611.91 419.362C611.622 418.387 611.333 417.411 611.044 416.433C604.747 395.101 598.235 373.043 587.009 360.52C582.66 355.667 578.037 352.412 572.88 350.566C552.983 343.447 524.665 363.794 504.414 382.113C492.529 392.819 480.841 404.972 469.538 416.724C466.744 419.63 463.853 422.634 461.02 425.556C450.228 436.68 439.057 449.672 427.23 463.429C405.717 488.452 383.473 514.326 360.058 533.068C346.512 543.912 333.78 551.24 321.132 555.473C296.215 563.812 275.515 561.576 256.857 557.918C245.353 555.661 233.948 551.867 222.957 546.643C213.949 542.311 205.459 537.065 197.72 531.052C175.341 513.689 157.904 486.828 145.9 451.216C141.091 436.955 136.979 420.501 132.958 399.435C125.278 359.488 119.032 331.091 112.704 307.36C100.119 260.162 87.6469 230.81 71.0034 209.216C59.8606 194.759 46.6466 183.087 31.7265 174.52C21.3747 168.578 9.20921 165.017 -7.72044 162.981C-11.1926 162.571 -14.7844 162.243 -18.3983 162.009C-21.8168 161.799 -25.3313 161.684 -29.0523 161.56C-42.7923 161.106 -58.3666 160.591 -73.9954 154.892C-82.2334 151.889 -90.3694 148.173 -98.2377 144.581C-107.18 140.499 -116.426 136.277 -125.602 133.228C-134.802 130.171 -144.018 128.747 -152.988 129C-185.069 129.899 -216.388 144.312 -236.765 167.553L-236.907 167.198C-231.614 161.16 -225.573 155.66 -218.953 150.853C-212.562 146.21 -205.601 142.19 -198.26 138.9C-183.998 132.507 -168.286 128.896 -152.825 128.463C-143.832 128.212 -134.595 129.638 -125.373 132.701C-116.189 135.753 -106.937 139.977 -97.9918 144.063C-90.1263 147.654 -81.9943 151.368 -73.7631 154.369C-58.1617 160.057 -42.6043 160.572 -28.8798 161.026C-25.1564 161.148 -21.6402 161.266 -18.2194 161.475C-14.6015 161.71 -11.0069 162.039 -7.53106 162.447C9.42396 164.488 21.6107 168.054 31.9839 174.01C46.9249 182.589 60.158 194.278 71.3163 208.755C87.9829 230.378 100.468 259.76 113.065 306.999C119.394 330.739 125.644 359.145 133.325 399.103C137.343 420.153 141.451 436.589 146.254 450.835C158.243 486.397 175.652 513.22 197.999 530.557C205.727 536.562 214.208 541.799 223.204 546.127C234.181 551.345 245.572 555.134 257.061 557.389C275.691 561.041 296.355 563.276 321.214 554.957C333.815 550.74 346.503 543.436 360.002 532.631C383.366 513.928 405.587 488.082 427.077 463.086C438.912 449.321 450.09 436.318 460.899 425.177C463.731 422.259 466.621 419.254 469.416 416.348C480.728 404.586 492.424 392.425 504.329 381.701C517.544 369.745 529.831 360.86 540.848 355.293C553.753 348.771 564.608 347.01 573.109 350.047C578.296 351.903 582.941 355.176 587.311 360.051C598.574 372.618 605.096 394.706 611.402 416.069C611.691 417.047 611.979 418.025 612.268 418.998C618.34 439.515 622.678 462.792 625.162 488.181C630.362 540.703 627.946 604.563 617.981 677.988L617.613 678.125Z" fill="#FFE492"/>
<path d="M263.699 559.779C262.94 559.542 262.192 559.306 261.459 559.069C250.554 555.569 239.7 550.501 229.205 544.004C220.669 538.664 212.654 532.471 205.379 525.601C194.981 515.795 185.622 503.448 177.559 488.904C169.773 474.859 162.955 458.33 157.296 439.774C151.75 421.593 147.693 401.999 144.778 386.958C137.922 351.847 129.956 321.801 121.101 297.652C106.758 258.541 90.2833 232.282 69.2518 215.013C56.564 204.595 41.6183 196.52 25.9872 191.633C25.745 191.558 25.5041 191.482 25.2609 191.409C11.7984 187.291 -2.80752 187.627 -16.5842 188.605C-20.1736 188.868 -23.917 189.21 -27.7121 189.627C-29.7953 189.863 -31.8913 190.123 -34.1089 190.397C-49.754 192.341 -67.4864 194.541 -85.2245 188.361C-96.0269 184.596 -106.366 179.136 -116.365 173.854C-122.821 170.443 -129.496 166.918 -136.054 163.999C-145.07 159.987 -153.928 157.601 -162.386 156.911C-192.841 154.418 -223.178 163.82 -243.539 182.06L-243.627 181.594C-233.184 172.239 -220.527 165.27 -206.008 160.877C-192.142 156.684 -176.985 155.106 -162.181 156.318C-153.701 157.012 -144.818 159.401 -135.783 163.425C-129.218 166.346 -122.54 169.875 -116.081 173.286C-106.089 178.566 -95.7565 184.024 -84.968 187.782C-67.2759 193.948 -49.5733 191.749 -33.9548 189.81C-31.7349 189.534 -29.6389 189.274 -27.5543 189.038C-23.7565 188.622 -20.0095 188.279 -16.4173 188.017C-2.61731 187.038 12.0133 186.702 25.5093 190.827C41.4307 195.696 56.6632 203.871 69.5672 214.468C80.4209 223.382 89.8926 234.47 98.5206 248.363C106.83 261.746 114.344 277.727 121.491 297.221C130.354 321.388 138.326 351.458 145.186 386.591C148.097 401.623 152.151 421.203 157.692 439.363C169.175 477.017 185.33 505.85 205.704 525.067C212.968 531.929 220.974 538.113 229.497 543.446C239.979 549.935 250.816 554.997 261.708 558.49C278.751 563.956 299.03 569.163 324.196 561.704C336.933 557.929 349.707 550.58 363.248 539.238C387.029 519.318 409.224 491.148 430.691 463.904C441.733 449.891 452.162 436.654 462.117 425.485C465.306 421.907 468.561 418.212 471.708 414.637C482.344 402.559 493.339 390.073 504.633 378.885C517.583 366 529.799 356.083 540.941 349.411C553.859 341.676 564.976 338.564 573.985 340.163C579.546 341.149 584.609 343.5 589.465 347.352C602.448 357.647 610.795 378.375 618.894 400.517C625.957 419.823 631.18 443.241 633.998 468.241C637.157 495.941 637.762 527.469 635.796 561.947C634.044 592.664 630.251 625.892 624.521 660.711L624.111 660.849C636.415 586.073 639.603 521.383 633.58 468.575C630.766 443.611 625.552 420.228 618.499 400.955C610.413 378.851 602.083 358.163 589.149 347.904C584.319 344.074 579.284 341.737 573.758 340.756C557.203 337.822 532.696 351.518 504.749 379.325C493.476 390.493 482.49 402.969 471.865 415.034C468.716 418.611 465.459 422.309 462.27 425.887C452.333 437.034 441.912 450.261 430.881 464.261C420.349 477.628 409.457 491.452 398.174 504.486C385.383 519.263 373.983 530.788 363.318 539.722C349.717 551.114 336.886 558.497 324.088 562.29C312.801 565.636 301.748 566.724 290.294 565.621C280.599 564.677 271.509 562.221 263.699 559.779Z" fill="#FFE492"/>
<path d="M284.888 567.735C277.988 565.578 271.667 562.794 266.048 560.219C255.716 555.484 245.416 549.141 235.438 541.364C227.381 535.02 219.838 527.883 213.024 520.146C194.35 498.989 179.845 468.953 168.678 428.329C163.807 410.614 160.032 392.012 156.585 374.479C149.744 339.949 140.628 310.836 129.488 287.942C113.105 254.273 93.4071 232.939 67.4973 220.804C52.7345 213.89 35.8927 209.564 18.792 208.29C4.47865 207.224 -10.9137 210.637 -25.454 214.22C-29.0956 215.126 -32.9914 216.141 -37.0306 217.237C-38.0413 217.513 -39.0628 217.798 -40.0972 218.083C-57.0951 222.796 -76.3286 228.129 -95.4968 222.137C-95.8202 222.036 -96.1412 221.933 -96.4643 221.824C-109.335 217.543 -121.197 210.198 -132.67 203.092C-137.218 200.275 -141.923 197.363 -146.518 194.76C-155.496 189.678 -163.763 186.421 -171.796 184.808C-201.013 178.944 -229.639 183.223 -250.336 196.555L-250.341 195.971C-240.11 189.381 -227.458 184.838 -213.757 182.832C-200.28 180.859 -185.683 181.317 -171.542 184.156C-163.486 185.773 -155.198 189.037 -146.2 194.131C-141.599 196.736 -136.895 199.65 -132.344 202.466C-120.882 209.563 -109.03 216.902 -96.184 221.175C-76.7657 227.639 -57.2172 222.216 -39.973 217.433C-38.94 217.147 -37.9171 216.864 -36.9054 216.585C-32.8625 215.488 -28.9654 214.473 -25.3211 213.568C-10.7558 209.976 4.66361 206.561 19.0161 207.629C36.1433 208.906 53.0131 213.238 67.8006 220.163C80.6408 226.176 91.8165 234.391 101.967 245.273C112.421 256.481 121.561 270.267 129.907 287.422C141.059 310.346 150.188 339.495 157.037 374.06C160.482 391.586 164.254 410.177 169.122 427.875C180.274 468.444 194.757 498.435 213.4 519.559C220.205 527.282 227.737 534.411 235.784 540.747C245.747 548.513 256.032 554.849 266.349 559.574C283.711 567.527 302.707 574.762 327.172 568.435C340.046 565.104 352.906 557.71 366.488 545.828C390.682 524.663 413.812 492.707 434.219 464.513C444.487 450.327 454.186 436.928 463.325 425.778C466.622 421.756 469.993 417.586 473.253 413.554C483.45 400.938 493.995 387.894 504.93 376.051C517.628 362.242 529.774 351.293 541.029 343.509C553.957 334.569 565.339 330.11 574.854 330.259C580.802 330.35 586.283 331.782 591.611 334.628C606.495 342.585 616.703 362.103 625.517 382.013C633.656 400.395 639.642 423.309 642.831 448.279C646.408 475.985 646.993 507.821 644.572 542.895C642.406 574.261 637.861 608.079 631.06 643.413L630.614 643.537C645.07 568.43 649.137 501.04 642.374 448.652C639.193 423.73 633.217 400.859 625.095 382.513C616.302 362.651 606.121 343.181 591.3 335.256C586.004 332.426 580.556 331.005 574.647 330.912C557.077 330.637 532.376 346.827 505.092 376.5C494.178 388.318 483.645 401.35 473.458 413.953C470.197 417.987 466.826 422.157 463.525 426.184C454.406 437.308 444.717 450.694 434.46 464.865C414.02 493.102 390.853 525.109 366.579 546.345C352.922 558.292 339.99 565.727 327.043 569.078C315.809 571.983 304.905 572.291 293.708 570.011C290.675 569.409 287.734 568.625 284.888 567.735Z" fill="#FFE492"/>
<path d="M297.423 574.532C297.325 574.501 297.227 574.47 297.128 574.439C287.396 571.349 278.711 566.29 270.648 561.371C260.864 555.404 251.121 547.784 241.686 538.726C234.107 531.383 227.04 523.296 220.683 514.695C203.818 491.912 190.914 460.836 180.075 416.89C176.17 401.067 172.84 384.302 169.617 368.092C169.215 366.063 168.81 364.035 168.406 362.008C161.463 327.455 151.197 299.271 137.892 278.242C119.673 249.449 96.0795 232.556 65.7616 226.601C49.1372 223.337 30.6649 222.844 12.3418 225.176C-2.11604 227.018 -16.7175 232.658 -34.305 239.841C-37.874 241.306 -41.6965 242.897 -46.333 244.85L-46.5923 244.961C-55.5541 248.768 -65.7111 253.081 -76.0787 255.534C-87.9858 258.351 -98.3264 258.266 -107.693 255.301C-122.295 250.664 -135.198 241.282 -147.673 232.207C-150.73 229.983 -153.892 227.684 -156.975 225.535C-165.817 219.376 -173.741 215.184 -181.2 212.722C-208.665 203.658 -236.344 203.055 -257.136 211.064L-257.04 210.376C-246.855 206.452 -234.563 204.526 -221.494 204.805C-208.4 205.083 -194.36 207.579 -180.895 212.023C-173.414 214.492 -165.469 218.692 -156.609 224.865C-153.524 227.015 -150.361 229.314 -147.303 231.538C-134.842 240.601 -121.956 249.973 -107.39 254.598C-107.325 254.618 -107.259 254.639 -107.194 254.659C-86.3194 261.185 -64.2534 251.814 -46.5111 244.279L-46.2505 244.169C-41.6116 242.214 -37.7892 240.623 -34.2188 239.158C-16.6016 231.964 -1.97414 226.312 12.5286 224.466C30.8835 222.128 49.3858 222.622 66.0383 225.893C80.8741 228.808 93.7549 234.148 105.418 242.222C117.985 250.923 128.752 262.511 138.331 277.651C151.661 298.719 161.946 326.949 168.9 361.559C169.304 363.586 169.707 365.616 170.109 367.645C173.33 383.849 176.66 400.609 180.561 416.42C191.385 460.311 204.269 491.344 221.106 514.088C227.454 522.678 234.511 530.751 242.08 538.086C251.501 547.132 261.231 554.74 270.999 560.697C288.495 571.371 306.186 580.511 330.155 575.202C343.163 572.319 356.109 564.88 369.732 552.455C394.341 530.011 417.367 495.45 437.684 464.954C447.195 450.678 456.18 437.191 464.539 426.111C467.755 421.848 471.044 417.427 474.225 413.15C484.17 399.777 494.453 385.952 505.233 373.255C517.694 358.519 529.77 346.535 541.123 337.638C554.065 327.499 565.706 321.696 575.724 320.394C581.935 319.587 587.718 320.055 593.388 321.827C593.511 321.866 593.634 321.904 593.758 321.945C611.315 327.615 623.494 347.154 632.144 363.543C641.358 381.004 648.11 403.413 651.67 428.35C655.666 456.065 656.232 488.205 653.353 523.881C650.769 555.895 645.471 590.304 637.601 626.155L637.119 626.262C648.828 572.918 660.769 495.355 651.171 428.771C647.62 403.89 640.883 381.533 631.692 364.114C623.068 347.77 610.927 328.288 593.454 322.648C587.703 320.784 581.843 320.286 575.539 321.107C556.977 323.521 532.081 342.204 505.435 373.714C494.68 386.382 484.408 400.192 474.474 413.549C471.292 417.829 468.001 422.252 464.783 426.518C456.446 437.569 447.472 451.038 437.972 465.3C417.618 495.85 394.549 530.477 369.844 553.009C356.13 565.517 343.097 573.006 330.001 575.906C318.903 578.362 308.242 577.913 297.423 574.532Z" fill="#FFE492"/>
<path d="M306.833 581.216C304.733 580.56 302.637 579.772 300.541 578.85C291.363 574.82 283.336 568.825 275.24 562.52C265.854 555.21 256.919 546.564 247.924 536.085C240.828 527.747 234.236 518.716 228.333 509.239C213.347 485.223 201.976 453.212 191.464 405.447C188.853 393.585 186.449 381.249 184.124 369.317C182.858 362.823 181.551 356.107 180.221 349.532C173.132 314.714 161.716 287.465 146.292 268.539C125.912 243.531 99.0037 231.705 64.0256 232.388C45.5456 232.749 25.4428 236.09 5.89242 242.05C-9.81296 246.838 -25.453 255.567 -42.0118 264.809L-43.1567 265.448C-45.7459 266.898 -48.3662 268.371 -51.0182 269.86C-52.5464 270.719 -54.0843 271.583 -55.6357 272.454C-65.3256 277.924 -75.6728 283.555 -86.2722 287.065C-98.5784 291.14 -109.259 291.698 -118.926 288.772C-135.019 283.895 -148.601 272.328 -161.731 261.137C-163.605 259.538 -165.544 257.887 -167.435 256.304C-176.299 248.881 -183.662 243.903 -190.609 240.631C-216.244 228.558 -242.972 223.063 -263.941 225.556L-263.737 224.785C-242.713 222.285 -215.928 227.787 -190.249 239.882C-183.283 243.163 -175.901 248.155 -167.02 255.592C-165.129 257.177 -163.189 258.828 -161.314 260.427C-148.344 271.481 -134.936 282.905 -119.114 287.851C-118.944 287.905 -118.773 287.958 -118.6 288.009C-98.0593 294.229 -77.0812 283.864 -55.606 271.746C-54.0546 270.875 -52.5167 270.011 -50.9886 269.151C-48.3355 267.66 -45.7176 266.19 -43.1259 264.737L-41.9811 264.099C-25.3943 254.841 -9.72761 246.096 6.02909 241.293C25.6156 235.32 45.7529 231.974 64.2653 231.612C99.3316 230.928 126.312 242.786 146.747 267.862C162.209 286.838 173.652 314.148 180.757 349.042C182.085 355.62 183.395 362.335 184.66 368.831C186.983 380.759 189.387 393.093 191.997 404.946C202.496 452.656 213.851 484.623 228.809 508.599C234.705 518.06 241.286 527.08 248.374 535.404C257.355 545.868 266.277 554.502 275.649 561.8C289.874 572.879 307.578 586.67 333.14 581.944C346.281 579.515 359.311 572.03 372.975 559.06C398.004 535.303 420.888 498.039 441.078 465.165C449.849 450.883 458.133 437.393 465.748 426.429C468.715 422.157 471.752 417.728 474.689 413.444C484.54 399.077 494.727 384.222 505.531 370.443C517.774 354.772 529.779 341.753 541.214 331.749C554.17 320.413 566.072 313.269 576.587 310.514C583.336 308.746 589.653 308.33 595.899 309.244C604.264 310.466 612.042 314.386 619.681 321.218C626.144 327.003 632.387 334.798 638.768 345.052C649.058 361.589 656.575 383.496 660.506 408.402C664.922 436.124 665.467 468.574 662.13 504.848C659.126 537.512 653.073 572.512 644.139 608.879L643.624 608.962C662.485 532.185 668.289 461.122 659.966 408.866C656.046 384.027 648.55 362.183 638.289 345.694C624.541 323.602 610.983 312.263 595.612 310.015C589.408 309.107 583.136 309.52 576.434 311.275C551.417 317.827 524.203 347.318 505.781 370.901C495.003 384.646 484.829 399.484 474.99 413.833C472.051 418.119 469.013 422.55 466.045 426.824C458.453 437.756 450.178 451.231 441.418 465.495C421.185 498.441 398.252 535.782 373.11 559.647C359.338 572.719 346.203 580.264 332.956 582.713C323.978 584.372 315.373 583.886 306.833 581.216Z" fill="#FFE492"/>
<path d="M314.586 587.931C300.277 583.457 289.256 572.79 279.827 563.664C270.956 555.08 262.56 545.193 254.158 533.44C247.545 524.116 241.428 514.138 235.978 503.782C219.63 472.764 210.393 432.689 202.848 394.002C201.308 386.104 199.809 377.99 198.361 370.145C196.35 359.25 194.27 347.985 192.031 337.056C184.773 301.864 172.21 275.546 154.693 258.833C132.03 237.216 101.805 230.455 62.2899 238.167C41.9445 242.137 20.2125 249.313 -0.557691 258.918C-16.5764 266.325 -32.0883 277.149 -48.5101 288.609C-49.6737 289.42 -50.8406 290.236 -52.0117 291.05L-52.6478 291.494C-56.6414 294.284 -60.7703 297.167 -64.9404 300.052C-74.9491 307.007 -85.7151 314.069 -96.6163 318.629C-109.271 323.921 -120.243 325.103 -130.164 322.241C-147.579 317.219 -161.556 303.32 -175.07 289.879C-176.018 288.937 -176.961 287.999 -177.901 287.07C-186.826 278.235 -193.649 272.518 -200.022 268.532C-223.708 253.722 -249.488 243.334 -270.752 240.034L-270.441 239.203C-249.141 242.507 -223.323 252.909 -199.607 267.74C-193.215 271.737 -186.377 277.466 -177.436 286.316C-176.496 287.246 -175.553 288.184 -174.605 289.129C-161.116 302.543 -147.164 316.411 -129.819 321.419C-108.273 327.633 -85.049 313.273 -64.9716 299.325C-60.8015 296.439 -56.6726 293.556 -52.68 290.769L-52.0439 290.325C-50.8719 289.508 -49.7059 288.695 -48.5423 287.884C-32.0918 276.404 -16.5537 265.561 -0.480922 258.129C20.3274 248.506 42.0996 241.319 62.4804 237.341C81.2139 233.686 97.5061 233.287 112.286 236.121C128.773 239.284 143.195 246.671 155.152 258.078C172.726 274.843 185.327 301.237 192.606 336.526C194.847 347.461 196.927 358.728 198.938 369.626C200.386 377.472 201.883 385.582 203.424 393.478C210.962 432.123 220.185 472.153 236.504 503.114C241.947 513.455 248.055 523.419 254.658 532.73C263.047 544.465 271.43 554.337 280.288 562.91C293.888 576.072 310.815 592.454 336.111 588.692C349.386 586.717 362.5 579.186 376.205 565.67C401.661 540.562 424.361 500.508 444.39 465.166C452.437 450.967 460.038 437.555 466.946 426.75C469.501 422.753 472.12 418.617 474.653 414.616C484.56 398.967 494.807 382.783 505.817 367.635C517.856 351.017 529.792 336.959 541.291 325.856C554.267 313.327 566.428 304.843 577.438 300.637C584.588 297.906 591.321 296.568 598.026 296.546C607.057 296.516 615.843 299.359 624.14 304.993C631.405 309.928 638.552 317.184 645.378 326.562C656.743 342.175 665.026 363.577 669.331 388.454C674.167 416.185 674.694 448.94 670.898 485.815C667.469 519.128 660.662 554.722 650.667 591.604L650.121 591.663C671.303 513.511 677.919 441.524 668.752 388.964C664.461 364.169 656.206 342.837 644.88 327.275C630.197 307.105 614.785 297.324 597.764 297.381C591.108 297.403 584.423 298.731 577.324 301.441C551.128 311.448 524.144 343.206 506.118 368.088C495.135 383.196 484.903 399.358 475.008 414.987C472.476 418.989 469.855 423.127 467.297 427.128C460.412 437.898 452.821 451.291 444.784 465.473C435.148 482.475 424.228 501.745 412.794 519.437C399.692 539.707 387.777 555.032 376.367 566.287C369.768 572.795 363.154 578.022 356.706 581.822C349.771 585.909 342.772 588.501 335.902 589.522C328.04 590.693 320.984 589.931 314.586 587.931Z" fill="#FFE492"/>
<path d="M321.266 594.726C316.536 593.247 311.922 590.901 307.37 587.673C298.406 581.317 290.979 572.546 284.425 564.811C276.164 555.059 268.082 543.614 260.404 530.796C254.277 520.496 248.634 509.572 243.635 498.322C229.276 466.062 221.829 426.808 214.244 382.558C213.57 378.625 212.892 374.617 212.238 370.739C209.657 355.474 206.989 339.69 203.852 324.583C196.413 288.949 182.703 263.564 163.103 249.132C138.38 230.927 103.881 229.181 60.5657 243.946C38.3391 251.523 14.9775 262.53 -6.99422 275.782C-23.5377 285.76 -39.1977 298.726 -55.7777 312.454C-57.4624 313.849 -59.1532 315.248 -60.8524 316.652C-65.0836 320.151 -69.6341 323.905 -74.2312 327.648C-83.8857 335.532 -95.3244 344.379 -106.947 350.19C-119.957 356.698 -131.225 358.505 -141.389 355.713C-159.998 350.606 -174.148 334.252 -187.832 318.437L-188.353 317.836C-195.054 310.095 -202.244 302.142 -209.422 296.435C-231.3 279.039 -255.492 264.148 -277.541 254.504L-277.133 253.637C-255.061 263.291 -230.846 278.195 -208.949 295.607C-201.752 301.331 -194.548 309.296 -187.837 317.048L-187.315 317.65C-173.66 333.429 -159.538 349.745 -141.02 354.829C-119.635 360.701 -96.325 344.882 -74.3209 326.911C-69.7248 323.169 -65.177 319.415 -60.9468 315.918C-59.2486 314.516 -57.5569 313.115 -55.8732 311.722C-39.2648 297.971 -23.5764 284.982 -6.97868 274.971C15.0352 261.692 38.441 250.664 60.7088 243.073C81.0303 236.148 99.5443 232.786 115.732 233.082C134.229 233.423 150.324 238.54 163.571 248.292C183.246 262.779 197.007 288.255 204.471 324.011C207.61 339.131 210.279 354.921 212.861 370.195C213.516 374.071 214.195 378.079 214.869 382.011C222.446 426.219 229.885 465.431 244.218 497.635C249.21 508.867 254.845 519.775 260.962 530.061C268.63 542.86 276.698 554.288 284.947 564.025C297.875 579.29 313.968 598.285 339.105 595.443C352.513 593.927 365.71 586.353 379.453 572.286C405.348 545.783 428.803 500.968 447.65 464.957C454.991 450.93 461.924 437.681 468.16 427.084C470.125 423.742 472.141 420.297 474.091 416.965C484.217 399.65 494.69 381.746 506.121 364.84C523.868 338.517 550.796 304.301 578.303 290.775C585.898 287.041 593.051 284.779 600.168 283.862C618.834 281.358 636.275 289.508 652.006 308.081C664.447 322.771 673.496 343.668 678.174 368.516C683.431 396.253 683.94 429.317 679.683 466.794C677.732 483.984 674.764 502.069 670.864 520.545C667.139 538.193 662.545 556.293 657.21 574.342L656.635 574.369C680.146 494.841 687.575 421.931 677.555 369.069C672.894 344.315 663.88 323.498 651.487 308.863C635.83 290.374 618.485 282.261 599.937 284.749C592.873 285.659 585.775 287.903 578.236 291.61C550.918 305.041 524.135 339.085 506.477 365.278C495.073 382.139 484.617 400.02 474.502 417.311C472.553 420.644 470.537 424.092 468.57 427.435C462.355 437.997 455.43 451.226 448.101 465.233C438.617 483.354 427.868 503.892 416.426 522.871C403.277 544.679 391.245 561.054 379.642 572.93C373.022 579.705 366.373 585.085 359.881 588.92C352.887 593.052 345.815 595.547 338.866 596.331C332.765 597.023 326.93 596.497 321.266 594.726Z" fill="#FFE492"/>
<path d="M327.168 601.545C321.499 599.772 316.066 596.631 310.776 592.082C302.203 584.715 295.193 574.746 289.009 565.949C281.222 554.875 273.695 542.157 266.636 528.145C260.994 516.878 255.826 505.007 251.279 492.859C238.755 459.45 232.832 419.585 226.558 377.382C226.248 375.294 225.938 373.204 225.626 371.112C222.701 351.505 219.678 331.229 215.659 312.109C208.031 275.993 193.175 251.539 171.504 239.427C144.284 224.211 106.375 227.674 58.8294 249.716C35.0474 260.741 9.38019 275.986 -13.444 292.64C-30.678 305.214 -46.6992 320.417 -63.6616 336.514C-65.6699 338.419 -67.684 340.331 -69.7081 342.245C-73.7548 346.076 -78.5619 350.616 -83.539 355.24C-92.7682 363.831 -104.944 374.608 -117.281 381.722C-130.645 389.43 -142.209 391.873 -152.632 389.186C-161.177 386.927 -169.471 381.79 -177.989 373.479C-185.302 366.344 -191.752 357.99 -198.827 348.601C-205.254 339.959 -212.094 330.971 -218.846 324.336C-238.843 304.681 -260.883 286.055 -284.349 268.969L-283.855 268.078C-260.374 285.172 -238.324 303.812 -218.315 323.476C-211.546 330.129 -204.696 339.132 -198.26 347.782C-186.402 363.522 -171.647 383.117 -152.244 388.244C-130.004 393.974 -106.154 375.415 -83.6946 354.506C-78.7208 349.885 -73.9161 345.348 -69.8718 341.519C-67.8476 339.605 -65.8336 337.693 -63.8276 335.789C-46.8372 319.667 -30.7881 304.438 -13.4981 291.823C9.37261 275.135 35.0894 259.861 58.917 248.816C106.606 226.707 144.641 223.243 171.966 238.516C182.442 244.372 191.422 253.174 198.655 264.675C206.416 277.014 212.357 292.771 216.315 311.503C220.339 330.643 223.365 350.931 226.29 370.552C226.602 372.646 226.914 374.734 227.224 376.822C233.49 418.988 239.411 458.815 251.909 492.16C256.451 504.29 261.609 516.145 267.244 527.394C274.294 541.385 281.809 554.086 289.584 565.142C301.803 582.52 317.012 604.146 342.076 602.196C355.653 601.14 368.935 593.521 382.678 578.906C409.036 551.025 432.195 503.086 450.804 464.568C457.46 450.792 463.747 437.781 469.351 427.421C470.507 425.284 471.668 423.135 472.835 420.974C483.373 401.457 494.271 381.275 506.403 362.046C523.814 334.377 550.568 297.842 579.145 280.915C587.117 276.193 594.686 273.009 602.287 271.179C612.872 268.589 623.227 269.054 633.067 272.555C642.051 275.752 650.645 281.487 658.611 289.6C672.126 303.36 681.942 323.753 686.994 348.571C692.674 376.313 693.163 409.689 688.447 447.768C686.284 465.24 683.013 483.62 678.726 502.398C674.621 520.382 669.577 538.78 663.731 557.078L663.129 557.071C688.603 477.334 697.061 401.559 686.338 349.174C681.305 324.463 671.533 304.156 658.076 290.451C641.484 273.552 622.125 267.213 602.089 272.114C594.547 273.93 587.036 277.09 579.125 281.776C550.745 298.586 524.135 334.935 506.81 362.466C494.711 381.643 483.829 401.797 473.304 421.288C472.138 423.449 470.976 425.601 469.819 427.738C464.235 438.058 457.957 451.054 451.311 464.809C432.648 503.438 409.422 551.515 382.896 579.575C376.271 586.619 369.588 592.159 363.037 596.037C355.987 600.208 348.844 602.6 341.806 603.149C336.727 603.539 331.866 603.013 327.168 601.545Z" fill="#FFE492"/>
<path d="M332.535 608.398C326.075 606.378 320.008 602.43 314.193 596.492C305.966 588.09 299.397 576.932 293.602 567.089C286.278 554.651 279.305 540.655 272.875 525.497C267.718 513.278 263.027 500.458 258.929 487.398C248.836 455.246 244.279 418.299 239.454 379.181C238.665 372.785 237.849 366.174 237.017 359.665C234.091 336.792 231.348 317.829 227.475 299.634C219.651 263.011 203.651 239.489 179.916 229.719C150.091 217.442 108.77 226.11 57.1022 255.482C31.4341 270.075 4.09302 289.254 -19.8849 309.489C-37.9485 324.734 -54.498 342.302 -72.0185 360.902C-74.1889 363.206 -76.3674 365.518 -78.5536 367.83C-82.4514 371.958 -87.5988 377.393 -92.8331 382.82C-114.888 405.72 -140.576 428.364 -163.863 422.652C-164.588 422.471 -165.306 422.268 -166.015 422.046C-183.735 416.507 -196.607 398.705 -209.288 379.357L-210.077 378.143C-216.332 368.5 -222.241 359.392 -228.255 352.228C-250.919 325.227 -273.766 301.274 -291.139 283.423L-290.568 282.514C-273.192 300.371 -250.339 324.329 -227.667 351.34C-221.636 358.524 -215.721 367.643 -209.457 377.297L-208.669 378.511C-195.524 398.567 -182.176 416.965 -163.456 421.652C-140.427 427.299 -114.946 404.827 -93.056 382.099C-87.825 376.677 -82.6823 371.245 -78.7855 367.12C-76.5983 364.805 -74.4221 362.495 -72.2518 360.191C-54.7037 341.563 -38.1279 323.966 -20.0066 308.673C4.02053 288.394 31.4166 269.176 57.1357 254.554C81.0061 240.984 103.032 231.72 122.603 227.016C145.058 221.619 164.494 222.197 180.371 228.731C204.229 238.55 220.312 262.189 228.172 298.983C232.05 317.206 234.795 336.188 237.726 359.081C238.558 365.59 239.374 372.204 240.164 378.6C244.984 417.679 249.537 454.591 259.612 486.678C263.702 499.723 268.386 512.522 273.536 524.722C279.956 539.861 286.918 553.835 294.232 566.255C305.712 585.754 319.999 610.019 345.061 608.94C358.76 608.35 372.124 600.688 385.915 585.516C412.737 556.134 435.568 504.988 453.913 463.892C459.898 450.483 465.553 437.816 470.555 427.75L470.67 427.52C481.873 404.979 493.459 381.672 506.696 359.24C518.224 339.669 529.944 322.497 541.533 308.197C554.6 292.076 567.541 279.577 579.999 271.044C588.334 265.334 596.322 261.225 604.417 258.485C626.321 251.006 647.35 255.368 665.229 271.104C672.425 277.437 678.705 285.586 683.899 295.323C689.122 305.117 693.136 316.321 695.831 328.621C701.934 356.37 702.404 390.054 697.225 428.738C692.572 463.508 683.249 501.917 670.267 539.809L669.64 539.765C697.427 458.664 706.72 381.943 695.135 329.273C689.731 304.61 679.2 284.816 664.679 272.038C646.901 256.392 626.008 252.049 604.257 259.476C596.224 262.197 588.301 266.273 580.03 271.936C556.77 287.869 531.571 318.199 507.158 359.648C493.955 382.021 482.386 405.296 471.198 427.805L471.084 428.035C466.099 438.064 460.452 450.712 454.475 464.102C436.072 505.324 413.173 556.624 386.163 586.213C379.513 593.529 372.795 599.223 366.199 603.136C359.086 607.357 351.873 609.65 344.757 609.959C340.52 610.139 336.455 609.623 332.535 608.398Z" fill="#FFE492"/>
<path d="M-177.485 455.47C-185.409 452.993 -192.889 447.622 -200.281 439.117C-207.626 430.667 -213.977 420.186 -219.748 410.12C-220.789 408.29 -221.82 406.466 -222.844 404.654C-227.939 395.637 -232.751 387.12 -237.663 380.122C-257.249 352.225 -276.367 326.678 -294.859 301.975L-297.922 297.881L-297.284 296.961L-294.221 301.056C-275.73 325.763 -256.608 351.311 -237.018 379.215C-232.093 386.23 -227.274 394.758 -222.173 403.787C-221.151 405.598 -220.12 407.422 -219.079 409.25C-207.233 429.913 -194.047 450.471 -174.665 455.065C-150.805 460.632 -123.518 433.742 -102.414 409.697C-97.0128 403.549 -91.7107 397.397 -87.6952 392.724C-85.4807 390.149 -83.2739 387.575 -81.0728 385.006C-62.8229 363.716 -45.585 343.607 -26.5107 325.528C-1.33491 301.668 27.7397 278.502 55.3577 260.3C80.9806 243.412 104.771 231.178 126.07 223.938C150.501 215.633 171.598 213.956 188.777 218.952C214.697 226.305 231.944 249.023 240.032 286.468C244.506 307.246 247.158 329.038 249.164 347.617C250.255 357.727 251.253 368.053 252.219 378.039C255.635 413.391 259.17 449.944 267.316 481.203C270.954 495.17 275.165 508.916 279.831 522.058C285.617 538.293 292.026 553.541 298.882 567.375C309.599 588.998 322.936 615.909 348.047 615.689C361.869 615.567 375.315 607.862 389.154 592.131C416.458 561.188 438.912 506.731 456.953 462.975C462.289 450.035 467.328 437.811 471.762 428.088C481.757 406.169 493.547 380.749 506.994 356.445C518.376 335.847 530.023 317.634 541.613 302.314C554.724 284.984 567.926 271.147 580.855 261.184C589.421 254.582 598.066 249.408 606.549 245.802C618.664 240.631 630.585 238.725 641.982 240.139C652.654 241.463 662.702 245.662 671.847 252.618C679.559 258.484 686.297 266.274 691.874 275.774C697.485 285.333 701.79 296.403 704.667 308.675C707.991 322.808 709.75 338.822 709.894 356.271C710.032 372.803 708.723 390.784 706.006 409.712C700.923 445.124 690.823 484.144 676.802 522.546L676.151 522.462C706.259 439.995 716.385 362.33 703.932 309.378C698.239 285.104 686.646 265.301 671.285 253.617C652.292 239.17 629.865 236.822 606.428 246.825C598.014 250.402 589.438 255.536 580.939 262.085C556.579 280.856 531.874 312.729 507.51 356.822C494.098 381.059 482.33 406.436 472.352 428.321C467.934 438.009 462.902 450.213 457.574 463.137C448.673 484.723 438.584 509.191 427.213 532.339C414.018 559.2 401.662 578.991 389.437 592.844C382.765 600.429 376.011 606.28 369.368 610.232C362.192 614.501 354.906 616.698 347.715 616.76C344.086 616.792 340.702 616.263 337.537 615.274C318.584 609.349 307.426 586.833 298.2 568.217C291.334 554.361 284.915 539.092 279.122 522.833C274.449 509.673 270.232 495.906 266.589 481.92C258.426 450.597 254.888 414.005 251.467 378.62C250.502 368.637 249.504 358.314 248.414 348.209C246.412 329.653 243.764 307.891 239.297 287.153C231.254 249.908 214.108 227.322 188.336 220.004C147.967 208.267 93.7523 235.95 55.3794 261.242C27.8167 279.408 -1.19789 302.525 -26.3211 326.337C-45.3384 344.362 -62.5504 364.44 -80.7721 385.696C-82.9731 388.264 -85.1812 390.838 -87.3968 393.415C-91.4146 398.09 -96.7201 404.247 -102.126 410.402C-110.985 420.496 -124.337 435.047 -137.943 444.829C-144.55 449.58 -150.863 452.963 -156.707 454.887C-163.223 457.031 -169.41 457.447 -175.09 456.121C-175.896 455.935 -176.694 455.718 -177.485 455.47Z" fill="#FFE492"/>
<path d="M-188.962 488.891C-196.895 486.411 -204.269 480.839 -211.43 471.933C-218.845 462.714 -225.085 451.061 -230.209 440.875C-231.782 437.742 -233.335 434.576 -234.838 431.515C-239.038 422.958 -243.005 414.873 -247.073 408.013C-261.682 383.376 -276.326 359.204 -290.488 335.826C-295.173 328.093 -300.016 320.098 -304.706 312.337L-304.005 311.406C-299.315 319.166 -294.471 327.161 -289.787 334.894C-275.624 358.272 -260.979 382.448 -246.37 407.087C-242.291 413.966 -238.318 422.059 -234.114 430.627C-232.613 433.688 -231.059 436.851 -229.489 439.984C-218.858 461.102 -205.845 484.007 -185.879 488.475C-161.346 493.917 -133.391 463.98 -111.775 437.294C-106.236 430.457 -100.759 423.567 -96.6079 418.328C-94.4765 415.64 -92.3515 412.952 -90.2309 410.271C-71.1619 386.153 -53.1516 363.374 -33.0176 342.386C-6.83124 315.089 23.9226 287.978 53.5757 266.048C94.8009 235.671 153.178 201.148 197.176 209.179C225.194 214.2 243.603 235.995 251.885 273.96C255.604 291.025 258.29 310.207 260.594 336.162C261.759 349.278 262.702 362.79 263.615 375.854C265.99 409.844 268.443 444.991 275.013 475.741C278.194 490.641 281.93 505.331 286.117 519.405C291.193 536.434 297.05 552.955 303.523 568.509C313.514 592.29 325.947 621.89 351.024 622.451C364.741 622.832 378.656 614.86 392.382 598.762C420.192 566.191 443.152 505.858 459.916 461.806C464.62 449.443 469.064 437.766 472.958 428.443C481.609 407.723 493.329 380.5 507.28 353.666C531.44 307.162 556.479 272.733 581.7 251.341C590.559 243.797 599.634 237.673 608.67 233.136C621.529 226.672 634.228 223.589 646.415 223.978C657.897 224.345 668.675 227.765 678.454 234.145C686.682 239.583 693.872 247.025 699.828 256.261C705.841 265.589 710.439 276.516 713.496 288.74C717.033 302.866 718.892 318.964 719.019 336.589C719.14 353.291 717.712 371.496 714.775 390.701C709.259 426.756 698.384 466.384 683.328 505.3L682.655 505.172C715.094 421.336 726.052 342.724 712.723 289.496C706.684 265.35 694.312 246.072 677.884 235.216C657.573 221.968 633.613 221.616 608.592 234.197C599.629 238.695 590.629 244.77 581.84 252.255C556.786 273.504 531.895 307.74 507.854 354.015C493.94 380.776 482.246 407.946 473.61 428.626C469.731 437.916 465.293 449.578 460.594 461.925C451.928 484.696 442.105 510.507 430.785 535.165C417.602 563.877 405.145 584.92 392.699 599.496C385.993 607.361 379.204 613.373 372.518 617.365C365.269 621.694 357.914 623.786 350.657 623.586C339.377 623.332 329.685 617.362 321.027 605.333C313.501 594.875 307.807 581.324 302.784 569.371C296.301 553.795 290.437 537.251 285.353 520.198C281.16 506.103 277.418 491.392 274.232 476.472C267.648 445.659 265.191 410.474 262.814 376.449C261.903 363.389 260.959 349.884 259.795 336.779C257.494 310.87 254.812 291.724 251.102 274.699C242.872 236.952 224.583 215.29 196.743 210.301C152.933 202.307 94.7445 236.728 53.6431 267.013C24.0493 288.898 -6.64011 315.952 -32.7712 343.191C-52.8489 364.12 -70.8334 386.867 -89.873 410.949C-91.9947 413.632 -94.1197 416.32 -96.2511 419.009C-100.406 424.252 -105.887 431.149 -111.431 437.991C-133.238 464.916 -161.459 495.115 -186.329 489.597C-187.212 489.398 -188.092 489.163 -188.962 488.891Z" fill="#FFE492"/>
<path d="M-200.39 522.331C-222.067 515.555 -234.903 485.387 -246.282 458.642C-249.779 450.424 -253.081 442.661 -256.487 435.905L-311.491 326.794L-310.733 325.854L-255.728 434.965C-252.313 441.737 -249.007 449.509 -245.505 457.739C-233.687 485.518 -220.29 517.004 -197.096 521.888C-171.913 527.196 -143.274 494.216 -121.139 464.895C-113.899 455.305 -106.676 445.502 -99.6887 436.022C-80.5807 410.096 -60.8228 383.285 -39.5277 359.242C-22.6187 340.151 -3.40044 320.594 16.0478 302.688C37.3835 283.043 58.7003 265.564 79.4024 250.737C102.227 234.392 123.75 221.696 143.369 213.004C165.069 203.391 184.384 198.724 200.779 199.131C233.623 199.947 254.806 220.911 263.736 261.442C271.158 295.123 272.873 334.438 274.532 372.46C275.976 405.555 277.469 439.774 282.709 470.266C288.762 505.482 297.327 538.913 308.167 569.627C317.299 595.505 328.665 627.715 354.006 629.196C375.408 630.447 396.222 611.53 417.637 571.358C435.853 537.189 450.803 494.574 462.816 460.334C466.909 448.665 470.776 437.643 474.157 428.782C492.793 379.932 511.215 340.555 530.471 308.404C542.486 288.345 554.944 271.01 567.499 256.882C581.524 241.101 596.091 228.843 610.794 220.451C623.514 213.191 636.144 208.978 648.334 207.93C659.938 206.932 670.899 208.808 680.91 213.506C700.6 222.745 715.308 242.378 722.324 268.786C726.075 282.902 728.034 299.087 728.146 316.887C728.251 333.758 726.705 352.188 723.546 371.669C717.595 408.368 705.944 448.606 689.853 488.03L689.159 487.859C723.425 403.903 735.52 322.308 721.511 269.592C706.636 213.611 660.055 193.4 610.752 221.541C561.912 249.418 517.464 317.247 474.867 428.906C471.497 437.738 467.636 448.746 463.547 460.401C451.508 494.715 436.527 537.421 418.228 571.745C408.26 590.441 398.194 604.823 388.308 614.495C382.749 619.932 377.103 624.031 371.527 626.674C365.592 629.487 359.562 630.736 353.601 630.388C351.165 630.245 348.808 629.82 346.531 629.108C338.232 626.513 330.954 620.115 324.433 609.724C317.086 598.017 311.7 582.755 307.371 570.492C296.518 539.735 287.94 506.26 281.878 470.992C276.625 440.436 275.132 406.176 273.686 373.046C272.03 335.073 270.317 295.806 262.913 262.211C254.041 221.956 233.005 201.131 200.387 200.321C134.408 198.681 29.9299 281.965 -39.2225 360.039C-60.4597 384.016 -80.191 410.789 -99.2734 436.681C-106.264 446.166 -113.492 455.975 -120.738 465.573C-135.434 485.04 -147.473 498.505 -158.623 507.944C-165.582 513.834 -172.226 518.115 -178.37 520.669C-185.201 523.507 -191.66 524.316 -197.569 523.072C-198.522 522.867 -199.464 522.621 -200.39 522.331Z" fill="#FFE492"/>
</g>
</svg>
