<svg width="212" height="71" viewBox="0 0 212 71" fill="none" xmlns="http://www.w3.org/2000/svg">
<path d="M90.7958 37.3889C90.7958 47.4331 82.9785 54.8345 73.385 54.8345C63.7914 54.8345 55.9741 47.4331 55.9741 37.3889C55.9741 27.274 63.7914 19.9434 73.385 19.9434C82.9785 19.9434 90.7958 27.274 90.7958 37.3889ZM83.1742 37.3889C83.1742 31.1123 78.6434 26.8178 73.385 26.8178C68.1265 26.8178 63.5958 31.1123 63.5958 37.3889C63.5958 43.6026 68.1265 47.9601 73.385 47.9601C78.6434 47.9601 83.1742 43.5948 83.1742 37.3889Z" fill="#EA4335"/>
<path d="M128.356 37.3889C128.356 47.4331 120.539 54.8345 110.946 54.8345C101.352 54.8345 93.5347 47.4331 93.5347 37.3889C93.5347 27.2818 101.352 19.9434 110.946 19.9434C120.539 19.9434 128.356 27.274 128.356 37.3889ZM120.735 37.3889C120.735 31.1123 116.204 26.8178 110.946 26.8178C105.687 26.8178 101.156 31.1123 101.156 37.3889C101.156 43.6026 105.687 47.9601 110.946 47.9601C116.204 47.9601 120.735 43.5948 120.735 37.3889Z" fill="#FBBC05"/>
<path d="M164.352 20.9973V52.3176C164.352 65.2012 156.793 70.4631 147.857 70.4631C139.445 70.4631 134.382 64.8079 132.472 60.183L139.108 57.4065C140.29 60.2459 143.185 63.5966 147.849 63.5966C153.569 63.5966 157.114 60.0493 157.114 53.3715V50.8624H156.848C155.142 52.9782 151.855 54.8266 147.708 54.8266C139.03 54.8266 131.08 47.2286 131.08 37.4519C131.08 27.6043 139.03 19.9434 147.708 19.9434C151.847 19.9434 155.134 21.7917 156.848 23.8446H157.114V21.0052H164.352V20.9973ZM157.654 37.4519C157.654 31.3089 153.577 26.8178 148.389 26.8178C143.13 26.8178 138.725 31.3089 138.725 37.4519C138.725 43.5318 143.13 47.9601 148.389 47.9601C153.577 47.9601 157.654 43.5318 157.654 37.4519Z" fill="#4285F4"/>
<path d="M176.285 2.63916V53.7646H168.852V2.63916H176.285Z" fill="#34A853"/>
<path d="M205.254 43.1308L211.17 47.0949C209.26 49.9344 204.659 54.8267 196.709 54.8267C186.849 54.8267 179.486 47.1657 179.486 37.3811C179.486 27.0066 186.912 19.9355 195.856 19.9355C204.863 19.9355 209.268 27.1403 210.708 31.0337L211.498 33.0158L188.297 42.6746C190.073 46.1747 192.835 47.9601 196.709 47.9601C200.59 47.9601 203.282 46.041 205.254 43.1308ZM187.045 36.8541L202.554 30.3809C201.701 28.2021 199.135 26.6841 196.114 26.6841C192.241 26.6841 186.849 30.1213 187.045 36.8541Z" fill="#EA4335"/>
<path d="M27.8351 32.8506V25.4492H52.6485C52.8911 26.7391 53.0163 28.265 53.0163 29.9168C53.0163 35.4698 51.506 42.3363 46.6388 47.2286C41.9046 52.1838 35.8558 54.8266 27.8429 54.8266C12.9908 54.8266 0.501953 42.6666 0.501953 27.738C0.501953 12.8094 12.9908 0.649414 27.8429 0.649414C36.0592 0.649414 41.9124 3.88998 46.3101 8.11373L41.1143 13.3364C37.9608 10.3632 33.6882 8.0508 27.8351 8.0508C16.9895 8.0508 8.50704 16.8365 8.50704 27.738C8.50704 38.6395 16.9895 47.4252 27.8351 47.4252C34.8698 47.4252 38.8763 44.5858 41.4429 42.006C43.5244 39.9137 44.8938 36.9249 45.4337 32.8427L27.8351 32.8506Z" fill="#4285F4"/>
</svg>
