<svg width="288" height="63" viewBox="0 0 288 63" fill="none" xmlns="http://www.w3.org/2000/svg">
<g clip-path="url(#clip0_9_18506)">
<path d="M287.5 28.6987V23.594H281.232V15.6582L281.021 15.7239L275.134 17.5456L275.018 17.5813V23.5943H265.726V20.2445C265.726 18.6848 266.07 17.4912 266.75 16.6951C267.425 15.9086 268.39 15.5088 269.622 15.5088C270.507 15.5088 271.423 15.7197 272.345 16.1355L272.577 16.24V10.864L272.468 10.8236C271.607 10.5108 270.437 10.3533 268.987 10.3533C267.158 10.3533 265.497 10.7556 264.049 11.5531C262.599 12.3516 261.459 13.4916 260.66 14.941C259.864 16.3888 259.46 18.0609 259.46 19.9113V23.594H255.096V28.6987H259.46V50.2039H265.726V28.6987H275.018V42.3649C275.018 47.9933 277.643 50.8455 282.82 50.8455C283.67 50.8455 284.566 50.7447 285.48 50.5473C286.41 50.3446 287.044 50.1422 287.417 49.9259L287.5 49.8765V44.7247L287.245 44.8951C286.905 45.1242 286.482 45.3115 285.985 45.4508C285.486 45.5926 285.07 45.6636 284.747 45.6636C283.535 45.6636 282.637 45.3331 282.081 44.6809C281.518 44.0227 281.232 42.8717 281.232 41.2617V28.6987H287.5ZM241.104 45.6644C238.83 45.6644 237.037 44.9018 235.774 43.3996C234.503 41.8898 233.859 39.7373 233.859 37.0025C233.859 34.1808 234.503 31.9724 235.774 30.436C237.039 28.9096 238.814 28.1349 241.053 28.1349C243.226 28.1349 244.955 28.8748 246.194 30.3352C247.439 31.8031 248.071 33.9938 248.071 36.8483C248.071 39.7379 247.477 41.9575 246.305 43.4423C245.141 44.9159 243.392 45.6644 241.104 45.6644ZM241.383 22.953C237.044 22.953 233.598 24.2387 231.141 26.7745C228.686 29.3106 227.441 32.8201 227.441 37.2066C227.441 41.3729 228.656 44.7241 231.053 47.1655C233.45 49.6078 236.713 50.845 240.748 50.845C244.954 50.845 248.331 49.5413 250.787 46.9704C253.243 44.4023 254.487 40.9259 254.487 36.6419C254.487 32.4105 253.32 29.0343 251.016 26.6091C248.711 24.1829 245.47 22.953 241.383 22.953ZM217.339 22.953C214.388 22.953 211.947 23.7165 210.082 25.2218C208.206 26.7361 207.254 28.7221 207.254 31.1253C207.254 32.3745 207.46 33.4842 207.864 34.4254C208.271 35.3697 208.9 36.2011 209.736 36.8988C210.566 37.591 211.847 38.316 213.545 39.0536C214.972 39.6475 216.036 40.1498 216.712 40.5457C217.372 40.9338 217.841 41.3238 218.106 41.7037C218.364 42.0754 218.494 42.5842 218.494 43.2121C218.494 44.9998 217.17 45.8697 214.447 45.8697C213.436 45.8697 212.284 45.6563 211.021 45.2357C209.768 44.8214 208.585 44.2148 207.514 43.437L207.254 43.2483V49.3489L207.349 49.3939C208.236 49.8077 209.353 50.1567 210.671 50.4314C211.986 50.7062 213.18 50.8461 214.218 50.8461C217.421 50.8461 219.999 50.079 221.881 48.5647C223.775 47.04 224.735 45.0071 224.735 42.5208C224.735 40.7271 224.218 39.1889 223.2 37.9484C222.188 36.718 220.433 35.5884 217.984 34.5899C216.034 33.7981 214.784 33.1408 214.269 32.6362C213.772 32.1488 213.519 31.4594 213.519 30.5865C213.519 29.8126 213.831 29.1927 214.47 28.6906C215.115 28.186 216.012 27.9294 217.137 27.9294C218.18 27.9294 219.248 28.0962 220.311 28.423C221.372 28.7499 222.304 29.1876 223.083 29.7231L223.339 29.9V24.1129L223.24 24.0703C222.522 23.7589 221.576 23.4924 220.426 23.2762C219.281 23.0614 218.243 22.953 217.339 22.953ZM190.921 45.6644C188.647 45.6644 186.854 44.9018 185.591 43.3996C184.319 41.8898 183.676 39.7379 183.676 37.0025C183.676 34.1808 184.32 31.9724 185.592 30.436C186.855 28.9096 188.631 28.1349 190.871 28.1349C193.042 28.1349 194.772 28.8748 196.011 30.3352C197.256 31.8031 197.888 33.9938 197.888 36.8483C197.888 39.7379 197.293 41.9575 196.121 43.4423C194.958 44.9159 193.209 45.6644 190.921 45.6644ZM191.2 22.953C186.861 22.953 183.414 24.2387 180.959 26.7745C178.503 29.3106 177.258 32.8201 177.258 37.2066C177.258 41.3746 178.474 44.7241 180.871 47.1655C183.268 49.6078 186.53 50.845 190.566 50.845C194.771 50.845 198.149 49.5413 200.605 46.9704C203.06 44.4023 204.304 40.9259 204.304 36.6419C204.304 32.4105 203.137 29.0343 200.833 26.6091C198.527 24.1829 195.286 22.953 191.2 22.953ZM167.747 28.2023V23.594H161.558V50.2034H167.747V36.5917C167.747 34.2771 168.266 32.3757 169.29 30.9394C170.301 29.5203 171.648 28.8012 173.292 28.8012C173.85 28.8012 174.476 28.8942 175.153 29.0781C175.824 29.2609 176.31 29.4594 176.597 29.6683L176.857 29.859V23.5486L176.756 23.505C176.18 23.2574 175.365 23.1324 174.333 23.1324C172.778 23.1324 171.386 23.6379 170.194 24.633C169.147 25.5076 168.391 26.7069 167.813 28.2023H167.747ZM150.475 22.953C147.635 22.953 145.103 23.5688 142.949 24.7826C140.79 25.9993 139.121 27.7362 137.985 29.9449C136.854 32.1482 136.28 34.7219 136.28 37.5921C136.28 40.1063 136.837 42.4135 137.937 44.447C139.038 46.4838 140.596 48.0772 142.568 49.1824C144.538 50.2862 146.814 50.8458 149.334 50.8458C152.275 50.8458 154.787 50.2511 156.8 49.0783L156.881 49.0311V43.2966L156.621 43.4886C155.709 44.1606 154.69 44.6969 153.593 45.0832C152.5 45.4693 151.502 45.6644 150.628 45.6644C148.199 45.6644 146.25 44.8959 144.835 43.3808C143.417 41.8637 142.697 39.7334 142.697 37.0527C142.697 34.3552 143.447 32.1701 144.925 30.5578C146.399 28.9503 148.352 28.1349 150.73 28.1349C152.764 28.1349 154.746 28.8316 156.622 30.2074L156.881 30.3981V24.3558L156.798 24.3081C156.092 23.9085 155.129 23.5786 153.934 23.3284C152.744 23.0788 151.581 22.953 150.475 22.953ZM132.018 23.5943H125.829V50.2034H132.018V23.5943ZM128.986 12.2587C127.968 12.2587 127.079 12.6094 126.349 13.3043C125.617 14.0013 125.245 14.8787 125.245 15.9143C125.245 16.9335 125.612 17.795 126.338 18.4733C127.059 19.1498 127.951 19.4926 128.987 19.4926C130.023 19.4926 130.917 19.1498 131.647 18.4745C132.382 17.795 132.754 16.9338 132.754 15.9143C132.754 14.9149 132.392 14.0465 131.677 13.3324C130.963 12.6198 130.058 12.2587 128.986 12.2587ZM113.545 21.6311V50.2034H119.861V13.0733H111.119L100.008 40.6524L89.2246 13.0733H80.127V50.2031H86.0624V21.6283H86.2662L97.6527 50.2034H102.132L113.341 21.6311H113.545Z" fill="#706D6E"/>
<path d="M29.6146 30.1118H0.5V0.66626H29.6146V30.1118Z" fill="#F1511B"/>
<path d="M61.7605 30.1111H32.6465V0.665527H61.7605V30.1111Z" fill="#80CC28"/>
<path d="M29.6138 62.6337H0.5V33.1885H29.6138V62.6337Z" fill="#00ADEF"/>
<path d="M61.7605 62.6337H32.6465V33.1885H61.7605V62.6337Z" fill="#FBBC09"/>
</g>
<defs>
<clipPath id="clip0_9_18506">
<rect width="287" height="62" fill="white" transform="translate(0.5 0.649658)"/>
</clipPath>
</defs>
</svg>
