<svg width="280" height="72" viewBox="0 0 280 72" fill="none" xmlns="http://www.w3.org/2000/svg">
<path d="M89.6797 56.2755L93.1656 48.2251C96.9327 51.0203 101.937 52.4739 106.885 52.4739C110.539 52.4739 112.844 51.0763 112.844 48.9518C112.788 43.0259 90.9729 47.666 90.8042 32.7951C90.748 25.2479 97.4949 19.4337 107.053 19.4337C112.732 19.4337 118.411 20.8314 122.459 24.018L119.198 32.2361C115.487 29.8881 110.876 28.2109 106.491 28.2109C103.511 28.2109 101.543 29.6085 101.543 31.3975C101.599 37.2117 123.583 34.0251 123.808 48.2251C123.808 55.94 117.23 61.3629 107.784 61.3629C100.868 61.3629 94.515 59.7416 89.6797 56.2755ZM223.439 45.318C221.696 48.3369 218.435 50.4054 214.668 50.4054C209.101 50.4054 204.603 45.9329 204.603 40.3983C204.603 34.8637 209.101 30.3912 214.668 30.3912C218.435 30.3912 221.696 32.4597 223.439 35.4786L233.053 30.1676C229.455 23.7944 222.539 19.4337 214.668 19.4337C203.029 19.4337 193.583 28.8259 193.583 40.3983C193.583 51.9707 203.029 61.3629 214.668 61.3629C222.595 61.3629 229.455 57.0581 233.053 50.629L223.439 45.318ZM128.644 2.04712H140.676V60.5802H128.644V2.04712ZM237.776 2.04712V60.5802H249.808V43.0259L264.089 60.5802H279.495L261.334 39.7274L278.146 20.2723H263.415L249.808 36.429V2.04712H237.776ZM176.435 45.4298C174.692 48.281 171.093 50.4054 167.045 50.4054C161.479 50.4054 156.981 45.9329 156.981 40.3983C156.981 34.8637 161.479 30.3912 167.045 30.3912C171.093 30.3912 174.692 32.6274 176.435 35.5345V45.4298ZM176.435 20.2723V25.0243C174.467 21.7259 169.575 19.4337 164.459 19.4337C153.889 19.4337 145.567 28.714 145.567 40.3424C145.567 51.9707 153.889 61.3629 164.459 61.3629C169.575 61.3629 174.467 59.0707 176.435 55.7723V60.5243H188.467V20.2723H176.435Z" fill="black"/>
<path d="M15.2945 45.3737C15.2945 49.4548 11.9773 52.7532 7.87286 52.7532C3.76844 52.7532 0.451172 49.4548 0.451172 45.3737C0.451172 41.2926 3.76844 37.9941 7.87286 37.9941H15.2945V45.3737ZM19.0054 45.3737C19.0054 41.2926 22.3227 37.9941 26.4271 37.9941C30.5315 37.9941 33.8488 41.2926 33.8488 45.3737V63.8225C33.8488 67.9036 30.5315 71.202 26.4271 71.202C22.3227 71.202 19.0054 67.9036 19.0054 63.8225V45.3737Z" fill="#E01E5A"/>
<path d="M26.4267 15.7439C22.3222 15.7439 19.005 12.4455 19.005 8.36439C19.005 4.28329 22.3222 0.984863 26.4267 0.984863C30.5311 0.984863 33.8483 4.28329 33.8483 8.36439V15.7439H26.4267ZM26.4267 19.4896C30.5311 19.4896 33.8483 22.788 33.8483 26.8691C33.8483 30.9502 30.5311 34.2486 26.4267 34.2486H7.81622C3.7118 34.2486 0.394531 30.9502 0.394531 26.8691C0.394531 22.788 3.7118 19.4896 7.81622 19.4896H26.4267Z" fill="#36C5F0"/>
<path d="M56.1694 26.8691C56.1694 22.788 59.4867 19.4896 63.5911 19.4896C67.6955 19.4896 71.0128 22.788 71.0128 26.8691C71.0128 30.9502 67.6955 34.2486 63.5911 34.2486H56.1694V26.8691ZM52.4586 26.8691C52.4586 30.9502 49.1413 34.2486 45.0369 34.2486C40.9325 34.2486 37.6152 30.9502 37.6152 26.8691V8.36439C37.6152 4.28329 40.9325 0.984863 45.0369 0.984863C49.1413 0.984863 52.4586 4.28329 52.4586 8.36439V26.8691Z" fill="#2EB67D"/>
<path d="M45.0369 56.443C49.1413 56.443 52.4586 59.7414 52.4586 63.8225C52.4586 67.9036 49.1413 71.202 45.0369 71.202C40.9325 71.202 37.6152 67.9036 37.6152 63.8225V56.443H45.0369ZM45.0369 52.7532C40.9325 52.7532 37.6152 49.4548 37.6152 45.3737C37.6152 41.2926 40.9325 37.9941 45.0369 37.9941H63.6474C67.7518 37.9941 71.069 41.2926 71.069 45.3737C71.069 49.4548 67.7518 52.7532 63.6474 52.7532H45.0369Z" fill="#ECB22E"/>
</svg>
